<?xml version="1.0" encoding="UTF-8" standalone="no"?>
<!DOCTYPE svg PUBLIC "-//W3C//DTD SVG 1.1//EN" "http://www.w3.org/Graphics/SVG/1.1/DTD/svg11.dtd">
<svg width="100%" height="100%" viewBox="0 0 183 37" version="1.1" xmlns="http://www.w3.org/2000/svg" xmlns:xlink="http://www.w3.org/1999/xlink" xml:space="preserve" xmlns:serif="http://www.serif.com/" style="fill-rule:evenodd;clip-rule:evenodd;stroke-linejoin:round;stroke-miterlimit:2;">
    <g transform="matrix(1,0,0,1,-8.98604,-81.9536)">
        <g transform="matrix(1,0,0,1,-28.4293,70.3223)">
            <g transform="matrix(24,0,0,24,37.2362,37.5187)">
                <path d="M1.018,-0.287C1.012,-0.287 1.012,-0.292 1.01,-0.296C0.979,-0.283 0.965,-0.238 0.946,-0.23C0.938,-0.222 0.896,-0.186 0.864,-0.168C0.857,-0.164 0.849,-0.163 0.841,-0.165C0.814,-0.252 0.825,-0.269 0.814,-0.33C0.816,-0.336 0.815,-0.341 0.815,-0.34C0.813,-0.357 0.813,-0.41 0.815,-0.414L0.815,-0.419C0.811,-0.473 0.813,-0.522 0.813,-0.521C0.813,-0.521 0.835,-0.504 0.844,-0.498C0.866,-0.485 0.888,-0.436 0.906,-0.432L0.915,-0.443C0.915,-0.445 0.914,-0.447 0.913,-0.449C0.92,-0.457 0.92,-0.457 0.918,-0.466C0.915,-0.477 0.918,-0.481 0.913,-0.49C0.899,-0.513 0.895,-0.52 0.885,-0.53L0.861,-0.55C0.846,-0.566 0.821,-0.562 0.821,-0.578C0.822,-0.585 0.823,-0.592 0.822,-0.599C0.822,-0.603 0.828,-0.623 0.828,-0.63C0.828,-0.657 0.844,-0.748 0.843,-0.742C0.846,-0.747 0.857,-0.792 0.857,-0.793C0.857,-0.806 0.864,-0.805 0.864,-0.817C0.864,-0.835 0.863,-0.836 0.861,-0.839C0.853,-0.852 0.831,-0.866 0.821,-0.854C0.789,-0.806 0.782,-0.812 0.759,-0.693C0.756,-0.67 0.736,-0.578 0.735,-0.574C0.735,-0.563 0.728,-0.573 0.707,-0.568C0.672,-0.56 0.649,-0.559 0.649,-0.559C0.623,-0.554 0.629,-0.561 0.629,-0.571C0.631,-0.573 0.626,-0.574 0.626,-0.578C0.63,-0.586 0.627,-0.589 0.63,-0.611C0.63,-0.613 0.633,-0.622 0.633,-0.623L0.628,-0.625L0.633,-0.628C0.633,-0.636 0.63,-0.643 0.632,-0.651C0.637,-0.653 0.637,-0.654 0.633,-0.66C0.634,-0.663 0.637,-0.666 0.635,-0.671L0.637,-0.674C0.641,-0.678 0.641,-0.693 0.641,-0.696C0.641,-0.712 0.645,-0.703 0.645,-0.726C0.647,-0.737 0.645,-0.733 0.645,-0.755C0.645,-0.763 0.65,-0.764 0.65,-0.772L0.659,-0.791C0.664,-0.815 0.674,-0.834 0.678,-0.853L0.678,-0.857C0.683,-0.872 0.685,-0.888 0.692,-0.903C0.697,-0.916 0.689,-0.91 0.696,-0.931C0.696,-0.951 0.689,-0.941 0.678,-0.954C0.668,-0.967 0.628,-0.957 0.628,-0.946C0.628,-0.941 0.619,-0.928 0.618,-0.926C0.601,-0.888 0.602,-0.886 0.602,-0.886C0.598,-0.855 0.592,-0.867 0.592,-0.834L0.581,-0.765L0.576,-0.724C0.576,-0.722 0.574,-0.72 0.572,-0.719C0.574,-0.715 0.574,-0.715 0.573,-0.711C0.569,-0.702 0.575,-0.706 0.571,-0.686C0.57,-0.685 0.571,-0.683 0.571,-0.681C0.571,-0.678 0.57,-0.675 0.571,-0.673C0.573,-0.668 0.569,-0.667 0.568,-0.665L0.566,-0.66L0.562,-0.583C0.56,-0.552 0.565,-0.547 0.556,-0.541C0.547,-0.545 0.444,-0.502 0.424,-0.504C0.423,-0.502 0.421,-0.5 0.421,-0.5C0.414,-0.503 0.408,-0.498 0.402,-0.496C0.386,-0.49 0.369,-0.489 0.353,-0.484C0.312,-0.484 0.29,-0.465 0.194,-0.465C0.123,-0.465 0.107,-0.473 0.085,-0.497C0.068,-0.515 0.075,-0.526 0.066,-0.543C0.065,-0.545 0.065,-0.548 0.066,-0.551C0.072,-0.563 0.067,-0.576 0.067,-0.597C0.067,-0.627 -0.012,-0.592 0.012,-0.536C0.013,-0.535 0.012,-0.525 0.013,-0.522C0.053,-0.341 0.374,-0.449 0.551,-0.497L0.557,-0.497C0.562,-0.492 0.56,-0.08 0.537,-0.017C0.478,0.16 0.496,0.099 0.434,0.213C0.409,0.238 0.434,0.242 0.436,0.249C0.441,0.253 0.46,0.26 0.459,0.26C0.468,0.258 0.476,0.255 0.482,0.248C0.49,0.24 0.495,0.254 0.522,0.204L0.533,0.183C0.534,0.182 0.534,0.18 0.535,0.178C0.535,0.167 0.534,0.16 0.54,0.155C0.541,0.155 0.541,0.153 0.541,0.152C0.542,0.15 0.542,0.147 0.545,0.146C0.547,0.145 0.548,0.142 0.547,0.142C0.543,0.136 0.555,0.123 0.555,0.11L0.555,0.112C0.555,0.111 0.581,0.025 0.581,0.019L0.578,0.016C0.581,0.011 0.59,0.01 0.586,-0.003C0.597,-0.025 0.592,-0.024 0.596,-0.05C0.599,-0.062 0.6,-0.073 0.601,-0.084C0.6,-0.081 0.599,-0.079 0.597,-0.076C0.595,-0.077 0.597,-0.079 0.597,-0.08C0.596,-0.082 0.595,-0.083 0.595,-0.085C0.594,-0.086 0.595,-0.088 0.596,-0.091L0.599,-0.088C0.599,-0.098 0.599,-0.098 0.6,-0.099C0.604,-0.102 0.604,-0.106 0.604,-0.11C0.604,-0.111 0.606,-0.112 0.607,-0.114C0.607,-0.115 0.608,-0.116 0.608,-0.116C0.601,-0.128 0.604,-0.12 0.61,-0.133C0.609,-0.136 0.609,-0.139 0.608,-0.142C0.6,-0.158 0.617,-0.152 0.608,-0.169C0.607,-0.172 0.611,-0.172 0.611,-0.174L0.611,-0.176C0.608,-0.179 0.612,-0.182 0.611,-0.186C0.61,-0.192 0.613,-0.194 0.613,-0.206C0.611,-0.214 0.612,-0.228 0.615,-0.234C0.617,-0.24 0.618,-0.246 0.614,-0.251C0.619,-0.262 0.619,-0.262 0.619,-0.273C0.619,-0.277 0.619,-0.293 0.621,-0.305C0.622,-0.31 0.618,-0.315 0.622,-0.32C0.622,-0.337 0.626,-0.342 0.619,-0.342L0.619,-0.351C0.617,-0.357 0.62,-0.36 0.622,-0.364C0.617,-0.364 0.618,-0.374 0.618,-0.375C0.621,-0.383 0.621,-0.39 0.618,-0.397C0.62,-0.398 0.622,-0.4 0.622,-0.401C0.617,-0.41 0.625,-0.42 0.622,-0.432C0.621,-0.433 0.621,-0.434 0.622,-0.435C0.625,-0.439 0.623,-0.443 0.625,-0.447C0.624,-0.447 0.619,-0.449 0.619,-0.45C0.619,-0.455 0.63,-0.451 0.623,-0.464C0.619,-0.471 0.619,-0.472 0.624,-0.477L0.621,-0.483C0.622,-0.484 0.625,-0.484 0.622,-0.489C0.622,-0.495 0.613,-0.491 0.627,-0.498L0.629,-0.5C0.629,-0.507 0.634,-0.507 0.638,-0.508C0.643,-0.509 0.724,-0.522 0.729,-0.521C0.729,-0.474 0.705,-0.105 0.833,-0.094C0.837,-0.094 0.842,-0.094 0.846,-0.097C0.85,-0.101 0.86,-0.1 0.865,-0.106C0.871,-0.118 0.879,-0.107 0.897,-0.125C0.94,-0.163 1.017,-0.249 1.017,-0.269C1.017,-0.274 1.014,-0.28 1.018,-0.287ZM0.042,-0.589C0.047,-0.586 0.049,-0.581 0.049,-0.575C0.044,-0.578 0.041,-0.584 0.042,-0.589ZM0.621,-0.566C0.621,-0.566 0.62,-0.566 0.62,-0.567C0.621,-0.567 0.621,-0.568 0.621,-0.569L0.623,-0.571C0.624,-0.57 0.624,-0.569 0.624,-0.568L0.621,-0.566ZM0.623,-0.484L0.627,-0.484C0.629,-0.489 0.629,-0.489 0.627,-0.496C0.626,-0.492 0.624,-0.488 0.623,-0.484ZM0.599,-0.105L0.599,-0.107C0.599,-0.108 0.6,-0.108 0.6,-0.11C0.601,-0.108 0.601,-0.107 0.601,-0.106C0.601,-0.106 0.6,-0.106 0.599,-0.105ZM0.591,-0.095C0.59,-0.095 0.59,-0.096 0.589,-0.097L0.59,-0.098C0.591,-0.098 0.593,-0.097 0.591,-0.095ZM0.599,-0.088C0.6,-0.087 0.6,-0.085 0.601,-0.084C0.603,-0.087 0.6,-0.087 0.599,-0.088ZM0.588,-0.075C0.588,-0.075 0.587,-0.076 0.587,-0.077C0.588,-0.077 0.589,-0.078 0.589,-0.078C0.59,-0.078 0.59,-0.077 0.591,-0.076C0.59,-0.076 0.589,-0.075 0.588,-0.075ZM0.595,-0.068C0.595,-0.067 0.596,-0.066 0.596,-0.065C0.596,-0.064 0.593,-0.06 0.593,-0.067C0.593,-0.067 0.594,-0.067 0.595,-0.068ZM0.573,0.007C0.577,0.01 0.577,0.01 0.573,0.012C0.574,0.012 0.574,0.012 0.574,0.013C0.566,0.009 0.574,0.014 0.567,0.021C0.564,0.015 0.564,0.013 0.57,0.011C0.569,0.006 0.571,0 0.573,-0.005C0.577,-0.027 0.579,-0.03 0.584,-0.037C0.584,-0.028 0.583,-0.027 0.573,0.007ZM0.573,0.014C0.573,0.014 0.573,0.013 0.574,0.013L0.574,0.014L0.573,0.014ZM0.486,0.151C0.487,0.149 0.488,0.149 0.489,0.148L0.49,0.149C0.49,0.152 0.486,0.153 0.486,0.151Z" style="fill-rule:nonzero;"/>
            </g>
            <g transform="matrix(24,0,0,24,61.4282,37.5187)">
                <path d="M0.042,-0.45C0.053,-0.414 0.094,-0.46 0.072,-0.473C0.06,-0.481 0.038,-0.476 0.039,-0.463L0.042,-0.45ZM0.316,-0.305C0.291,-0.285 0.311,-0.293 0.218,-0.168C0.199,-0.142 0.152,-0.098 0.153,-0.099C0.136,-0.083 0.142,-0.085 0.117,-0.078C0.114,-0.078 0.106,-0.075 0.099,-0.081C0.054,-0.116 0.081,-0.104 0.063,-0.144C0.063,-0.146 0.062,-0.148 0.062,-0.15C0.04,-0.353 0.13,-0.393 0.051,-0.407C0.037,-0.409 0.018,-0.408 0.013,-0.394C0.003,-0.367 -0.002,-0.383 -0.022,-0.281C-0.027,-0.253 -0.031,-0.205 -0.031,-0.205C-0.024,-0.152 -0.021,-0.109 0.012,-0.067C0.029,-0.046 0.03,-0.044 0.04,-0.04C0.061,-0.03 0.068,-0.023 0.089,-0.029C0.113,-0.036 0.124,-0.039 0.14,-0.051C0.157,-0.064 0.147,-0.05 0.177,-0.077C0.195,-0.093 0.232,-0.124 0.241,-0.141C0.25,-0.156 0.268,-0.165 0.278,-0.182C0.28,-0.186 0.336,-0.263 0.338,-0.291C0.339,-0.302 0.323,-0.311 0.316,-0.305ZM0.079,-0.055L0.073,-0.056C0.071,-0.061 0.076,-0.058 0.08,-0.056L0.079,-0.055Z" style="fill-rule:nonzero;"/>
            </g>
            <g transform="matrix(24,0,0,24,69.0362,37.5187)">
                <path d="M0.353,-0.276C0.346,-0.271 0.322,-0.267 0.316,-0.266C0.316,-0.268 0.321,-0.268 0.32,-0.271L0.315,-0.273L0.317,-0.281L0.322,-0.284L0.318,-0.291C0.32,-0.296 0.318,-0.303 0.321,-0.308C0.323,-0.31 0.324,-0.314 0.322,-0.316C0.32,-0.32 0.322,-0.324 0.32,-0.328C0.318,-0.333 0.318,-0.338 0.321,-0.342C0.317,-0.345 0.315,-0.348 0.316,-0.353C0.322,-0.377 0.289,-0.407 0.274,-0.412C0.184,-0.437 0.106,-0.331 0.078,-0.319C0.108,-0.434 0.099,-0.432 0.099,-0.439C0.102,-0.453 0.111,-0.5 0.094,-0.506C0.076,-0.511 0.055,-0.524 0.042,-0.48C0.039,-0.468 0.01,-0.4 0.005,-0.342C0.005,-0.341 -0.007,-0.299 -0.005,-0.29C-0.003,-0.286 -0.007,-0.286 -0.008,-0.284C-0.008,-0.28 -0.008,-0.275 -0.009,-0.272C-0.019,-0.253 -0.016,-0.222 -0.023,-0.209C-0.023,-0.208 -0.024,-0.206 -0.023,-0.204C-0.02,-0.194 -0.029,-0.182 -0.026,-0.168C-0.025,-0.164 -0.032,-0.149 -0.031,-0.144C-0.021,-0.106 -0.054,-0.023 -0.041,-0.006L-0.044,-0.001C-0.043,0.001 -0.04,0.003 -0.041,0.006L-0.045,0.014C-0.039,0.029 -0.046,0.185 -0.043,0.198C-0.04,0.212 -0.051,0.208 -0.048,0.217C-0.044,0.226 -0.048,0.236 -0.043,0.245L-0.043,0.247C-0.045,0.252 -0.042,0.257 -0.04,0.261L-0.045,0.261C-0.042,0.265 -0.042,0.265 -0.039,0.262C-0.038,0.264 -0.037,0.265 -0.038,0.267C-0.042,0.274 -0.035,0.276 -0.041,0.287C-0.041,0.288 -0.041,0.311 -0.036,0.328L-0.028,0.326L-0.035,0.332C-0.031,0.341 -0.031,0.341 -0.031,0.348L-0.031,0.349C-0.035,0.352 -0.034,0.352 -0.031,0.361L-0.031,0.349C-0.029,0.352 -0.029,0.356 -0.027,0.36L-0.031,0.361C-0.03,0.373 -0.027,0.367 -0.025,0.377L-0.027,0.379L-0.027,0.381L-0.026,0.38L-0.025,0.377C-0.02,0.386 -0.029,0.39 -0.021,0.397C-0.02,0.398 -0.017,0.396 -0.017,0.399L-0.02,0.402C-0.018,0.403 -0.015,0.404 -0.015,0.405C-0.012,0.416 0.03,0.439 0.045,0.414C0.054,0.401 0.057,0.387 0.055,0.371C0.053,0.356 0.026,0.146 0.038,0.132C0.039,0.132 0.038,0.13 0.038,0.13C0.033,0.111 0.038,0.082 0.033,0.073C0.032,0.071 0.033,0.027 0.033,0.026L0.035,0.021C0.047,0.027 0.063,0.026 0.066,0.023C0.076,0.014 0.1,0.019 0.122,0C0.13,-0.007 0.137,-0.004 0.142,-0.013C0.146,-0.02 0.152,-0.023 0.159,-0.024C0.172,-0.026 0.18,-0.04 0.179,-0.039C0.206,-0.077 0.206,-0.056 0.26,-0.148C0.262,-0.152 0.265,-0.157 0.27,-0.159C0.272,-0.16 0.275,-0.167 0.275,-0.169C0.275,-0.179 0.286,-0.172 0.282,-0.182C0.28,-0.189 0.291,-0.184 0.286,-0.193C0.291,-0.202 0.291,-0.205 0.299,-0.209C0.389,-0.245 0.307,-0.216 0.412,-0.252C0.426,-0.255 0.43,-0.255 0.432,-0.263C0.438,-0.302 0.373,-0.29 0.353,-0.276ZM0.24,-0.236C0.238,-0.224 0.224,-0.222 0.218,-0.217C0.217,-0.216 0.216,-0.215 0.215,-0.215C0.209,-0.214 0.205,-0.21 0.2,-0.208C0.198,-0.206 0.199,-0.203 0.196,-0.203C0.18,-0.2 0.174,-0.189 0.168,-0.189C0.163,-0.188 0.164,-0.184 0.161,-0.183C0.152,-0.181 0.155,-0.178 0.147,-0.176C0.139,-0.173 0.141,-0.169 0.134,-0.169C0.134,-0.169 0.133,-0.168 0.133,-0.167C0.132,-0.16 0.124,-0.162 0.122,-0.157C0.121,-0.156 0.119,-0.155 0.118,-0.156C0.113,-0.157 0.103,-0.147 0.094,-0.143C0.093,-0.142 0.091,-0.14 0.091,-0.139C0.09,-0.131 0.079,-0.132 0.067,-0.117C0.064,-0.114 0.06,-0.113 0.058,-0.109C0.058,-0.108 0.054,-0.108 0.052,-0.107C0.051,-0.106 0.052,-0.105 0.051,-0.105L0.045,-0.098C0.044,-0.104 0.044,-0.104 0.051,-0.108L0.053,-0.112C0.051,-0.115 0.049,-0.112 0.047,-0.112L0.046,-0.113C0.044,-0.157 0.053,-0.183 0.054,-0.19C0.055,-0.201 0.058,-0.2 0.086,-0.234C0.111,-0.263 0.117,-0.281 0.144,-0.298C0.173,-0.316 0.181,-0.323 0.181,-0.323C0.189,-0.327 0.197,-0.33 0.204,-0.336L0.238,-0.351C0.301,-0.383 0.241,-0.24 0.24,-0.236ZM0.289,-0.31L0.288,-0.311L0.289,-0.313L0.29,-0.312L0.289,-0.31ZM0.394,-0.273L0.406,-0.279C0.409,-0.276 0.401,-0.272 0.394,-0.273ZM0.39,-0.269C0.39,-0.272 0.39,-0.272 0.394,-0.273C0.393,-0.271 0.392,-0.27 0.39,-0.269ZM0.335,-0.243C0.333,-0.244 0.335,-0.245 0.333,-0.248L0.339,-0.245L0.335,-0.243ZM0.228,-0.204C0.211,-0.194 0.208,-0.191 0.202,-0.193C0.227,-0.21 0.219,-0.205 0.23,-0.208C0.229,-0.205 0.228,-0.204 0.228,-0.204ZM0.269,-0.189L0.272,-0.195C0.273,-0.192 0.271,-0.191 0.269,-0.189ZM0.263,-0.182L0.263,-0.183L0.264,-0.184L0.265,-0.183L0.263,-0.182ZM0.151,-0.171L0.156,-0.173C0.155,-0.17 0.155,-0.17 0.151,-0.171ZM0.16,-0.167C0.161,-0.169 0.162,-0.171 0.163,-0.172C0.165,-0.173 0.168,-0.173 0.169,-0.173C0.171,-0.17 0.167,-0.17 0.167,-0.168C0.166,-0.166 0.164,-0.165 0.16,-0.167ZM0.209,-0.166C0.199,-0.147 0.134,-0.055 0.088,-0.031C0.078,-0.026 0.068,-0.022 0.057,-0.019C0.053,-0.018 0.05,-0.02 0.047,-0.024L0.042,-0.034C0.043,-0.038 0.049,-0.037 0.049,-0.042L0.058,-0.048L0.056,-0.052L0.063,-0.055C0.065,-0.062 0.065,-0.062 0.07,-0.065L0.074,-0.079C0.08,-0.081 0.086,-0.083 0.09,-0.089L0.093,-0.092C0.105,-0.095 0.103,-0.107 0.115,-0.107C0.116,-0.107 0.117,-0.108 0.118,-0.109C0.122,-0.114 0.127,-0.116 0.133,-0.115C0.136,-0.13 0.145,-0.127 0.156,-0.134C0.18,-0.149 0.183,-0.155 0.187,-0.151C0.189,-0.148 0.193,-0.15 0.193,-0.153C0.192,-0.158 0.195,-0.16 0.199,-0.162C0.202,-0.163 0.204,-0.167 0.209,-0.166L0.21,-0.168C0.21,-0.168 0.211,-0.168 0.211,-0.167L0.209,-0.166ZM0.153,-0.163L0.154,-0.167C0.155,-0.165 0.154,-0.164 0.153,-0.163ZM0.152,-0.163L0.151,-0.162L0.151,-0.163L0.152,-0.163ZM0.128,-0.148L0.132,-0.149L0.132,-0.147L0.128,-0.148ZM0.111,-0.143C0.113,-0.143 0.112,-0.143 0.11,-0.142L0.111,-0.143ZM0.112,-0.138L0.115,-0.138L0.113,-0.137L0.112,-0.138ZM0.094,-0.123L0.095,-0.123L0.093,-0.122L0.094,-0.123ZM0.1,-0.115C0.102,-0.117 0.103,-0.119 0.104,-0.116L0.1,-0.115ZM0.087,-0.117L0.088,-0.118C0.088,-0.117 0.088,-0.117 0.087,-0.116L0.087,-0.117ZM0.051,-0.081C0.05,-0.079 0.049,-0.077 0.047,-0.076C0.045,-0.081 0.046,-0.081 0.051,-0.081ZM0.049,-0.064L0.043,-0.058C0.043,-0.061 0.044,-0.064 0.049,-0.064ZM0.035,0.154C0.033,0.152 0.034,0.154 0.034,0.157C0.034,0.156 0.035,0.155 0.035,0.154ZM0.014,0.197C0.018,0.203 0.018,0.203 0.016,0.211C0.014,0.206 0.014,0.202 0.014,0.197ZM0.017,0.239L0.018,0.242L0.017,0.243C0.015,0.24 0.015,0.241 0.017,0.239ZM0.016,0.248L0.018,0.248L0.019,0.255C0.016,0.255 0.016,0.252 0.016,0.248ZM0.018,0.265L0.017,0.263L0.019,0.262L0.02,0.264L0.018,0.265ZM-0.042,0.276L-0.043,0.277L-0.042,0.28L-0.041,0.279L-0.042,0.276ZM0.022,0.293L0.022,0.298L0.021,0.298L0.02,0.293L0.022,0.293ZM0.02,0.31L0.021,0.309L0.022,0.311L0.021,0.313L0.02,0.31ZM-0.033,0.32L-0.031,0.317L-0.031,0.319L-0.033,0.32ZM0.024,0.329C0.024,0.333 0.028,0.336 0.024,0.341C0.02,0.336 0.024,0.333 0.024,0.329ZM0.026,0.355C0.023,0.353 0.024,0.35 0.023,0.346C0.028,0.349 0.025,0.352 0.026,0.355Z" style="fill-rule:nonzero;"/>
            </g>
            <g transform="matrix(24,0,0,24,78.6122,37.5187)">
                <path d="M0.353,-0.276C0.346,-0.271 0.322,-0.267 0.316,-0.266C0.316,-0.268 0.321,-0.268 0.32,-0.271L0.315,-0.273L0.317,-0.281L0.322,-0.284L0.318,-0.291C0.32,-0.296 0.318,-0.303 0.321,-0.308C0.323,-0.31 0.324,-0.314 0.322,-0.316C0.32,-0.32 0.322,-0.324 0.32,-0.328C0.318,-0.333 0.318,-0.338 0.321,-0.342C0.317,-0.345 0.315,-0.348 0.316,-0.353C0.322,-0.377 0.289,-0.407 0.274,-0.412C0.184,-0.437 0.106,-0.331 0.078,-0.319C0.108,-0.434 0.099,-0.432 0.099,-0.439C0.102,-0.453 0.111,-0.5 0.094,-0.506C0.076,-0.511 0.055,-0.524 0.042,-0.48C0.039,-0.468 0.01,-0.4 0.005,-0.342C0.005,-0.341 -0.007,-0.299 -0.005,-0.29C-0.003,-0.286 -0.007,-0.286 -0.008,-0.284C-0.008,-0.28 -0.008,-0.275 -0.009,-0.272C-0.019,-0.253 -0.016,-0.222 -0.023,-0.209C-0.023,-0.208 -0.024,-0.206 -0.023,-0.204C-0.02,-0.194 -0.029,-0.182 -0.026,-0.168C-0.025,-0.164 -0.032,-0.149 -0.031,-0.144C-0.021,-0.106 -0.054,-0.023 -0.041,-0.006L-0.044,-0.001C-0.043,0.001 -0.04,0.003 -0.041,0.006L-0.045,0.014C-0.039,0.029 -0.046,0.185 -0.043,0.198C-0.04,0.212 -0.051,0.208 -0.048,0.217C-0.044,0.226 -0.048,0.236 -0.043,0.245L-0.043,0.247C-0.045,0.252 -0.042,0.257 -0.04,0.261L-0.045,0.261C-0.042,0.265 -0.042,0.265 -0.039,0.262C-0.038,0.264 -0.037,0.265 -0.038,0.267C-0.042,0.274 -0.035,0.276 -0.041,0.287C-0.041,0.288 -0.041,0.311 -0.036,0.328L-0.028,0.326L-0.035,0.332C-0.031,0.341 -0.031,0.341 -0.031,0.348L-0.031,0.349C-0.035,0.352 -0.034,0.352 -0.031,0.361L-0.031,0.349C-0.029,0.352 -0.029,0.356 -0.027,0.36L-0.031,0.361C-0.03,0.373 -0.027,0.367 -0.025,0.377L-0.027,0.379L-0.027,0.381L-0.026,0.38L-0.025,0.377C-0.02,0.386 -0.029,0.39 -0.021,0.397C-0.02,0.398 -0.017,0.396 -0.017,0.399L-0.02,0.402C-0.018,0.403 -0.015,0.404 -0.015,0.405C-0.012,0.416 0.03,0.439 0.045,0.414C0.054,0.401 0.057,0.387 0.055,0.371C0.053,0.356 0.026,0.146 0.038,0.132C0.039,0.132 0.038,0.13 0.038,0.13C0.033,0.111 0.038,0.082 0.033,0.073C0.032,0.071 0.033,0.027 0.033,0.026L0.035,0.021C0.047,0.027 0.063,0.026 0.066,0.023C0.076,0.014 0.1,0.019 0.122,0C0.13,-0.007 0.137,-0.004 0.142,-0.013C0.146,-0.02 0.152,-0.023 0.159,-0.024C0.172,-0.026 0.18,-0.04 0.179,-0.039C0.206,-0.077 0.206,-0.056 0.26,-0.148C0.262,-0.152 0.265,-0.157 0.27,-0.159C0.272,-0.16 0.275,-0.167 0.275,-0.169C0.275,-0.179 0.286,-0.172 0.282,-0.182C0.28,-0.189 0.291,-0.184 0.286,-0.193C0.291,-0.202 0.291,-0.205 0.299,-0.209C0.389,-0.245 0.307,-0.216 0.412,-0.252C0.426,-0.255 0.43,-0.255 0.432,-0.263C0.438,-0.302 0.373,-0.29 0.353,-0.276ZM0.24,-0.236C0.238,-0.224 0.224,-0.222 0.218,-0.217C0.217,-0.216 0.216,-0.215 0.215,-0.215C0.209,-0.214 0.205,-0.21 0.2,-0.208C0.198,-0.206 0.199,-0.203 0.196,-0.203C0.18,-0.2 0.174,-0.189 0.168,-0.189C0.163,-0.188 0.164,-0.184 0.161,-0.183C0.152,-0.181 0.155,-0.178 0.147,-0.176C0.139,-0.173 0.141,-0.169 0.134,-0.169C0.134,-0.169 0.133,-0.168 0.133,-0.167C0.132,-0.16 0.124,-0.162 0.122,-0.157C0.121,-0.156 0.119,-0.155 0.118,-0.156C0.113,-0.157 0.103,-0.147 0.094,-0.143C0.093,-0.142 0.091,-0.14 0.091,-0.139C0.09,-0.131 0.079,-0.132 0.067,-0.117C0.064,-0.114 0.06,-0.113 0.058,-0.109C0.058,-0.108 0.054,-0.108 0.052,-0.107C0.051,-0.106 0.052,-0.105 0.051,-0.105L0.045,-0.098C0.044,-0.104 0.044,-0.104 0.051,-0.108L0.053,-0.112C0.051,-0.115 0.049,-0.112 0.047,-0.112L0.046,-0.113C0.044,-0.157 0.053,-0.183 0.054,-0.19C0.055,-0.201 0.058,-0.2 0.086,-0.234C0.111,-0.263 0.117,-0.281 0.144,-0.298C0.173,-0.316 0.181,-0.323 0.181,-0.323C0.189,-0.327 0.197,-0.33 0.204,-0.336L0.238,-0.351C0.301,-0.383 0.241,-0.24 0.24,-0.236ZM0.289,-0.31L0.288,-0.311L0.289,-0.313L0.29,-0.312L0.289,-0.31ZM0.394,-0.273L0.406,-0.279C0.409,-0.276 0.401,-0.272 0.394,-0.273ZM0.39,-0.269C0.39,-0.272 0.39,-0.272 0.394,-0.273C0.393,-0.271 0.392,-0.27 0.39,-0.269ZM0.335,-0.243C0.333,-0.244 0.335,-0.245 0.333,-0.248L0.339,-0.245L0.335,-0.243ZM0.228,-0.204C0.211,-0.194 0.208,-0.191 0.202,-0.193C0.227,-0.21 0.219,-0.205 0.23,-0.208C0.229,-0.205 0.228,-0.204 0.228,-0.204ZM0.269,-0.189L0.272,-0.195C0.273,-0.192 0.271,-0.191 0.269,-0.189ZM0.263,-0.182L0.263,-0.183L0.264,-0.184L0.265,-0.183L0.263,-0.182ZM0.151,-0.171L0.156,-0.173C0.155,-0.17 0.155,-0.17 0.151,-0.171ZM0.16,-0.167C0.161,-0.169 0.162,-0.171 0.163,-0.172C0.165,-0.173 0.168,-0.173 0.169,-0.173C0.171,-0.17 0.167,-0.17 0.167,-0.168C0.166,-0.166 0.164,-0.165 0.16,-0.167ZM0.209,-0.166C0.199,-0.147 0.134,-0.055 0.088,-0.031C0.078,-0.026 0.068,-0.022 0.057,-0.019C0.053,-0.018 0.05,-0.02 0.047,-0.024L0.042,-0.034C0.043,-0.038 0.049,-0.037 0.049,-0.042L0.058,-0.048L0.056,-0.052L0.063,-0.055C0.065,-0.062 0.065,-0.062 0.07,-0.065L0.074,-0.079C0.08,-0.081 0.086,-0.083 0.09,-0.089L0.093,-0.092C0.105,-0.095 0.103,-0.107 0.115,-0.107C0.116,-0.107 0.117,-0.108 0.118,-0.109C0.122,-0.114 0.127,-0.116 0.133,-0.115C0.136,-0.13 0.145,-0.127 0.156,-0.134C0.18,-0.149 0.183,-0.155 0.187,-0.151C0.189,-0.148 0.193,-0.15 0.193,-0.153C0.192,-0.158 0.195,-0.16 0.199,-0.162C0.202,-0.163 0.204,-0.167 0.209,-0.166L0.21,-0.168C0.21,-0.168 0.211,-0.168 0.211,-0.167L0.209,-0.166ZM0.153,-0.163L0.154,-0.167C0.155,-0.165 0.154,-0.164 0.153,-0.163ZM0.152,-0.163L0.151,-0.162L0.151,-0.163L0.152,-0.163ZM0.128,-0.148L0.132,-0.149L0.132,-0.147L0.128,-0.148ZM0.111,-0.143C0.113,-0.143 0.112,-0.143 0.11,-0.142L0.111,-0.143ZM0.112,-0.138L0.115,-0.138L0.113,-0.137L0.112,-0.138ZM0.094,-0.123L0.095,-0.123L0.093,-0.122L0.094,-0.123ZM0.1,-0.115C0.102,-0.117 0.103,-0.119 0.104,-0.116L0.1,-0.115ZM0.087,-0.117L0.088,-0.118C0.088,-0.117 0.088,-0.117 0.087,-0.116L0.087,-0.117ZM0.051,-0.081C0.05,-0.079 0.049,-0.077 0.047,-0.076C0.045,-0.081 0.046,-0.081 0.051,-0.081ZM0.049,-0.064L0.043,-0.058C0.043,-0.061 0.044,-0.064 0.049,-0.064ZM0.035,0.154C0.033,0.152 0.034,0.154 0.034,0.157C0.034,0.156 0.035,0.155 0.035,0.154ZM0.014,0.197C0.018,0.203 0.018,0.203 0.016,0.211C0.014,0.206 0.014,0.202 0.014,0.197ZM0.017,0.239L0.018,0.242L0.017,0.243C0.015,0.24 0.015,0.241 0.017,0.239ZM0.016,0.248L0.018,0.248L0.019,0.255C0.016,0.255 0.016,0.252 0.016,0.248ZM0.018,0.265L0.017,0.263L0.019,0.262L0.02,0.264L0.018,0.265ZM-0.042,0.276L-0.043,0.277L-0.042,0.28L-0.041,0.279L-0.042,0.276ZM0.022,0.293L0.022,0.298L0.021,0.298L0.02,0.293L0.022,0.293ZM0.02,0.31L0.021,0.309L0.022,0.311L0.021,0.313L0.02,0.31ZM-0.033,0.32L-0.031,0.317L-0.031,0.319L-0.033,0.32ZM0.024,0.329C0.024,0.333 0.028,0.336 0.024,0.341C0.02,0.336 0.024,0.333 0.024,0.329ZM0.026,0.355C0.023,0.353 0.024,0.35 0.023,0.346C0.028,0.349 0.025,0.352 0.026,0.355Z" style="fill-rule:nonzero;"/>
            </g>
            <g transform="matrix(24,0,0,24,88.1882,37.5187)">
                <path d="M0.042,-0.45C0.053,-0.414 0.094,-0.46 0.072,-0.473C0.06,-0.481 0.038,-0.476 0.039,-0.463L0.042,-0.45ZM0.316,-0.305C0.291,-0.285 0.311,-0.293 0.218,-0.168C0.199,-0.142 0.152,-0.098 0.153,-0.099C0.136,-0.083 0.142,-0.085 0.117,-0.078C0.114,-0.078 0.106,-0.075 0.099,-0.081C0.054,-0.116 0.081,-0.104 0.063,-0.144C0.063,-0.146 0.062,-0.148 0.062,-0.15C0.04,-0.353 0.13,-0.393 0.051,-0.407C0.037,-0.409 0.018,-0.408 0.013,-0.394C0.003,-0.367 -0.002,-0.383 -0.022,-0.281C-0.027,-0.253 -0.031,-0.205 -0.031,-0.205C-0.024,-0.152 -0.021,-0.109 0.012,-0.067C0.029,-0.046 0.03,-0.044 0.04,-0.04C0.061,-0.03 0.068,-0.023 0.089,-0.029C0.113,-0.036 0.124,-0.039 0.14,-0.051C0.157,-0.064 0.147,-0.05 0.177,-0.077C0.195,-0.093 0.232,-0.124 0.241,-0.141C0.25,-0.156 0.268,-0.165 0.278,-0.182C0.28,-0.186 0.336,-0.263 0.338,-0.291C0.339,-0.302 0.323,-0.311 0.316,-0.305ZM0.079,-0.055L0.073,-0.056C0.071,-0.061 0.076,-0.058 0.08,-0.056L0.079,-0.055Z" style="fill-rule:nonzero;"/>
            </g>
            <g transform="matrix(24,0,0,24,95.7962,37.5187)">
                <path d="M0.33,-0.285C0.307,-0.259 0.303,-0.256 0.298,-0.248C0.287,-0.23 0.287,-0.229 0.285,-0.228C0.271,-0.221 0.273,-0.21 0.237,-0.176C0.195,-0.136 0.169,-0.102 0.121,-0.102C0.054,-0.101 0.066,-0.203 0.059,-0.22C0.053,-0.233 0.055,-0.258 0.054,-0.269C0.054,-0.275 0.063,-0.283 0.063,-0.282C0.074,-0.294 0.08,-0.294 0.094,-0.309C0.136,-0.353 0.21,-0.451 0.167,-0.491C0.153,-0.504 0.144,-0.504 0.115,-0.509C0.107,-0.51 0.105,-0.506 0.092,-0.503C0.073,-0.498 0.075,-0.493 0.054,-0.476C0.046,-0.47 0.046,-0.468 0.04,-0.459C-0.092,-0.276 0.021,0.049 0.161,-0.065C0.177,-0.078 0.182,-0.073 0.192,-0.083C0.214,-0.105 0.26,-0.136 0.263,-0.147C0.266,-0.157 0.339,-0.225 0.34,-0.232C0.341,-0.239 0.359,-0.257 0.36,-0.261L0.364,-0.28C0.354,-0.287 0.343,-0.298 0.33,-0.285ZM0.135,-0.455C0.144,-0.424 0.113,-0.373 0.107,-0.368L0.056,-0.319C0.051,-0.344 0.095,-0.471 0.135,-0.455ZM0.074,-0.095C0.071,-0.096 0.071,-0.096 0.07,-0.1L0.074,-0.096L0.074,-0.095ZM0.096,-0.081L0.096,-0.083C0.097,-0.082 0.099,-0.082 0.099,-0.08L0.096,-0.081Z" style="fill-rule:nonzero;"/>
            </g>
            <g transform="matrix(24,0,0,24,104.1,37.5187)">
                <path d="M0.57,-0.319C0.557,-0.326 0.563,-0.329 0.553,-0.314C0.482,-0.208 0.384,-0.116 0.384,-0.117C0.373,-0.104 0.358,-0.103 0.347,-0.09C0.344,-0.087 0.342,-0.083 0.337,-0.084C0.332,-0.081 0.325,-0.08 0.322,-0.073C0.319,-0.07 0.292,-0.058 0.285,-0.056C0.263,-0.048 0.247,-0.05 0.217,-0.048C0.116,-0.048 0.081,-0.23 0.08,-0.231C0.072,-0.295 0.075,-0.307 0.095,-0.407C0.096,-0.411 0.096,-0.415 0.097,-0.419C0.099,-0.425 0.101,-0.43 0.102,-0.436C0.11,-0.462 0.114,-0.501 0.118,-0.503C0.122,-0.508 0.123,-0.513 0.125,-0.519C0.132,-0.537 0.135,-0.536 0.137,-0.549C0.139,-0.557 0.139,-0.565 0.145,-0.571C0.146,-0.572 0.146,-0.573 0.146,-0.573C0.153,-0.584 0.159,-0.596 0.167,-0.607C0.178,-0.621 0.194,-0.635 0.195,-0.641C0.198,-0.65 0.201,-0.651 0.227,-0.674L0.227,-0.677C0.236,-0.688 0.246,-0.698 0.26,-0.703C0.261,-0.703 0.262,-0.704 0.262,-0.705C0.265,-0.709 0.275,-0.711 0.275,-0.711C0.295,-0.731 0.404,-0.747 0.419,-0.731C0.434,-0.712 0.451,-0.699 0.444,-0.656C0.432,-0.599 0.478,-0.574 0.491,-0.606L0.496,-0.625C0.489,-0.646 0.497,-0.635 0.49,-0.647L0.493,-0.653C0.486,-0.664 0.488,-0.659 0.492,-0.667C0.494,-0.671 0.491,-0.674 0.492,-0.676C0.492,-0.679 0.491,-0.681 0.488,-0.683C0.484,-0.686 0.489,-0.692 0.481,-0.699C0.472,-0.718 0.471,-0.717 0.471,-0.72C0.471,-0.724 0.463,-0.723 0.462,-0.723C0.448,-0.744 0.39,-0.768 0.389,-0.768C0.371,-0.775 0.348,-0.762 0.332,-0.764C0.331,-0.762 0.323,-0.763 0.317,-0.761C0.276,-0.758 0.225,-0.728 0.225,-0.728L0.21,-0.723C0.207,-0.721 0.203,-0.719 0.201,-0.715L0.193,-0.707C0.195,-0.708 0.203,-0.708 0.189,-0.699C0.187,-0.705 0.191,-0.705 0.193,-0.707C0.174,-0.698 0.179,-0.697 0.161,-0.681C0.161,-0.675 0.164,-0.679 0.16,-0.671C0.159,-0.669 0.16,-0.668 0.161,-0.667C0.158,-0.657 0.154,-0.666 0.145,-0.655C0.145,-0.653 0.149,-0.654 0.148,-0.651C0.143,-0.651 0.139,-0.653 0.132,-0.64C0.136,-0.64 0.137,-0.639 0.137,-0.639C0.14,-0.637 0.133,-0.635 0.131,-0.633C0.127,-0.621 0.122,-0.621 0.12,-0.613C0.12,-0.613 0.12,-0.612 0.119,-0.612C0.112,-0.607 0.11,-0.599 0.093,-0.574C0.09,-0.57 0.079,-0.555 0.08,-0.549C0.082,-0.549 0.069,-0.536 0.069,-0.535C0.07,-0.532 0.06,-0.506 0.059,-0.505C0.06,-0.501 0.052,-0.501 0.05,-0.499C0.061,-0.499 0.04,-0.494 0.046,-0.476C0.034,-0.471 0.041,-0.465 0.032,-0.459C0.027,-0.456 0.027,-0.446 0.02,-0.429C0.019,-0.425 0.019,-0.422 0.02,-0.419C0.013,-0.408 0.015,-0.404 0.01,-0.404C0.006,-0.41 0.014,-0.415 0.011,-0.422C0.007,-0.416 -0.001,-0.392 0.002,-0.388C0.005,-0.391 0.004,-0.396 0.009,-0.397C0.01,-0.394 0.012,-0.392 0.012,-0.389C0.012,-0.386 0.016,-0.387 0.017,-0.384C0.011,-0.382 0.011,-0.382 0.01,-0.377L0.011,-0.376C0.007,-0.372 0,-0.355 0,-0.349C0,-0.334 -0.005,-0.333 -0.003,-0.323C-0.003,-0.293 -0.004,-0.32 -0.004,-0.293C-0.004,-0.291 -0.008,-0.29 -0.006,-0.286C-0.006,-0.271 -0.007,-0.271 -0.006,-0.266L-0.007,-0.262L-0.011,-0.256C-0.012,-0.256 -0.014,-0.256 -0.015,-0.257C-0.017,-0.246 -0.017,-0.24 -0.013,-0.235C-0.012,-0.238 -0.012,-0.241 -0.011,-0.243C-0.011,-0.244 -0.009,-0.245 -0.007,-0.245L-0.005,-0.243C-0.008,-0.238 -0.004,-0.234 -0.005,-0.23C-0.007,-0.225 -0.006,-0.221 -0.004,-0.217C-0.005,-0.214 -0.006,-0.211 -0.008,-0.208C-0.006,-0.207 -0.003,-0.208 -0.004,-0.205C-0.004,-0.203 -0.005,-0.2 -0.006,-0.198C-0.005,-0.194 -0.001,-0.193 -0.002,-0.189C-0.002,-0.189 -0.003,-0.188 -0.004,-0.188C-0.013,-0.182 -0.003,-0.17 -0.002,-0.165C-0.002,-0.161 0.002,-0.146 0.011,-0.136C0.01,-0.13 0.013,-0.124 0.017,-0.12L0.017,-0.122C0.029,-0.125 0.03,-0.119 0.019,-0.13C0.018,-0.129 0.018,-0.128 0.018,-0.127C0.017,-0.127 0.017,-0.127 0.016,-0.126C0.016,-0.126 0.015,-0.127 0.015,-0.128C0.018,-0.131 0.027,-0.133 0.021,-0.14C0.019,-0.141 0.017,-0.141 0.014,-0.142C0.014,-0.14 0.014,-0.138 0.013,-0.137L0.011,-0.137C0.01,-0.139 0.01,-0.141 0.01,-0.143C0.009,-0.146 0.007,-0.147 0.008,-0.15L0.012,-0.15C0.011,-0.155 0.009,-0.16 0.008,-0.164C0.008,-0.171 0.015,-0.171 0.016,-0.167L0.019,-0.162C0.02,-0.161 0.021,-0.15 0.029,-0.137C0.029,-0.135 0.031,-0.134 0.03,-0.133C0.028,-0.126 0.032,-0.124 0.037,-0.121C0.046,-0.117 0.041,-0.114 0.055,-0.096C0.059,-0.09 0.064,-0.091 0.058,-0.085C0.061,-0.085 0.064,-0.084 0.066,-0.084L0.071,-0.075C0.063,-0.07 0.072,-0.066 0.073,-0.065L0.074,-0.065C0.073,-0.065 0.073,-0.065 0.074,-0.063L0.071,-0.063C0.07,-0.066 0.069,-0.07 0.062,-0.07C0.062,-0.063 0.078,-0.055 0.079,-0.047C0.071,-0.054 0.057,-0.065 0.062,-0.07C0.06,-0.073 0.052,-0.072 0.051,-0.072C0.051,-0.084 0.055,-0.074 0.046,-0.082C0.042,-0.088 0.032,-0.1 0.03,-0.098C0.03,-0.096 0.042,-0.081 0.041,-0.082C0.047,-0.073 0.051,-0.078 0.051,-0.072C0.077,-0.026 0.154,-0.007 0.163,-0.001C0.168,-0.001 0.179,0.001 0.185,0.003C0.272,0.017 0.388,-0.074 0.389,-0.074C0.457,-0.124 0.553,-0.258 0.556,-0.267C0.579,-0.282 0.581,-0.313 0.57,-0.319ZM0.165,-0.674C0.165,-0.668 0.165,-0.668 0.161,-0.667C0.162,-0.671 0.164,-0.672 0.165,-0.674ZM0.149,-0.667C0.149,-0.667 0.146,-0.664 0.146,-0.663L0.149,-0.665L0.149,-0.667ZM0.143,-0.648C0.145,-0.648 0.143,-0.645 0.142,-0.645L0.14,-0.645C0.141,-0.648 0.142,-0.649 0.143,-0.648ZM0.072,-0.523C0.071,-0.525 0.072,-0.526 0.074,-0.527C0.075,-0.525 0.074,-0.524 0.072,-0.523ZM0.041,-0.479C0.04,-0.48 0.04,-0.479 0.039,-0.478C0.04,-0.478 0.04,-0.477 0.041,-0.477L0.041,-0.479ZM0.023,-0.458C0.021,-0.455 0.02,-0.455 0.02,-0.454L0.02,-0.452C0.024,-0.452 0.022,-0.453 0.023,-0.458ZM-0.001,-0.38L-0.002,-0.379C-0.007,-0.356 0.006,-0.38 -0.001,-0.38ZM-0.003,-0.356C-0.005,-0.357 -0.006,-0.358 -0.006,-0.357C-0.007,-0.357 -0.007,-0.356 -0.008,-0.355L-0.007,-0.354C-0.006,-0.354 -0.005,-0.355 -0.003,-0.356ZM-0.007,-0.348C-0.008,-0.344 -0.011,-0.34 -0.007,-0.335C-0.006,-0.34 -0.005,-0.344 -0.007,-0.348ZM-0.01,-0.325C-0.01,-0.324 -0.009,-0.326 -0.007,-0.327C-0.009,-0.328 -0.01,-0.33 -0.01,-0.33C-0.011,-0.329 -0.013,-0.328 -0.013,-0.327C-0.013,-0.326 -0.011,-0.325 -0.01,-0.325ZM0.003,-0.298L0.002,-0.299C0.002,-0.299 0.002,-0.3 0.003,-0.301L0.004,-0.3C0.004,-0.3 0.004,-0.299 0.003,-0.298ZM-0.013,-0.227C-0.016,-0.223 -0.016,-0.223 -0.012,-0.221C-0.012,-0.223 -0.012,-0.225 -0.013,-0.227ZM-0.011,-0.205C-0.011,-0.208 -0.01,-0.212 -0.013,-0.215C-0.015,-0.211 -0.012,-0.208 -0.011,-0.205ZM0.009,-0.179L0.008,-0.179L0.009,-0.179C0.007,-0.181 0.006,-0.184 0.007,-0.191C0.009,-0.186 0.01,-0.183 0.009,-0.181L0.011,-0.185C0.014,-0.181 0.014,-0.181 0.014,-0.175C0.012,-0.177 0.01,-0.178 0.009,-0.179ZM-0.002,-0.177C-0.002,-0.178 -0.003,-0.178 -0.003,-0.179L-0.002,-0.18C0,-0.18 0.001,-0.177 -0.002,-0.177ZM0.032,-0.113C0.029,-0.117 0.026,-0.119 0.027,-0.123C0.022,-0.119 0.026,-0.114 0.027,-0.11L0.031,-0.11C0.031,-0.11 0.032,-0.112 0.032,-0.113ZM0.019,-0.116L0.02,-0.117C0.02,-0.12 0.017,-0.12 0.017,-0.12C0.017,-0.119 0.017,-0.116 0.019,-0.116ZM0.056,-0.078L0.053,-0.084L0.053,-0.083C0.052,-0.085 0.05,-0.086 0.048,-0.087C0.049,-0.083 0.05,-0.082 0.053,-0.083C0.053,-0.082 0.052,-0.08 0.052,-0.078L0.056,-0.078ZM0.377,-0.072L0.377,-0.074L0.378,-0.073C0.378,-0.073 0.378,-0.072 0.377,-0.072ZM0.365,-0.065C0.369,-0.068 0.371,-0.071 0.376,-0.071C0.373,-0.068 0.372,-0.064 0.365,-0.065ZM0.077,-0.064C0.077,-0.064 0.075,-0.065 0.074,-0.065L0.078,-0.065C0.077,-0.065 0.077,-0.064 0.077,-0.064ZM0.08,-0.046C0.081,-0.047 0.081,-0.047 0.08,-0.046ZM0.114,-0.027C0.114,-0.027 0.113,-0.028 0.113,-0.029L0.115,-0.029L0.118,-0.027L0.114,-0.027Z" style="fill-rule:nonzero;"/>
            </g>
            <g transform="matrix(24,0,0,24,117.252,37.5187)">
                <path d="M0.514,-0.292C0.51,-0.295 0.506,-0.297 0.503,-0.299C0.491,-0.297 0.48,-0.282 0.475,-0.277C0.442,-0.248 0.433,-0.208 0.428,-0.196C0.428,-0.196 0.416,-0.174 0.404,-0.147C0.395,-0.126 0.395,-0.111 0.386,-0.111L0.384,-0.111C0.384,-0.109 0.382,-0.107 0.383,-0.105C0.384,-0.1 0.378,-0.083 0.374,-0.091L0.374,-0.09C0.372,-0.087 0.37,-0.085 0.369,-0.081C0.367,-0.07 0.354,-0.062 0.358,-0.052C0.347,-0.042 0.352,-0.046 0.348,-0.039C0.344,-0.031 0.337,-0.027 0.337,-0.021C0.342,-0.015 0.333,-0.014 0.333,-0.01C0.334,-0.007 0.334,-0.005 0.331,-0.004C0.322,-0.003 0.325,0.005 0.313,0.023C0.306,0.033 0.315,0.028 0.294,0.051C0.282,0.066 0.258,0.032 0.256,0.013C0.249,-0.033 0.25,-0.123 0.252,-0.127C0.253,-0.129 0.259,-0.15 0.259,-0.152C0.255,-0.162 0.266,-0.184 0.265,-0.209C0.265,-0.211 0.271,-0.236 0.271,-0.238C0.269,-0.247 0.273,-0.25 0.279,-0.269C0.273,-0.274 0.279,-0.279 0.278,-0.284C0.278,-0.284 0.283,-0.312 0.284,-0.315C0.288,-0.327 0.283,-0.327 0.284,-0.339C0.285,-0.357 0.273,-0.359 0.266,-0.379C0.266,-0.381 0.27,-0.381 0.269,-0.382C0.22,-0.417 0.207,-0.394 0.192,-0.389C0.166,-0.38 0.131,-0.332 0.132,-0.328C0.135,-0.328 0.137,-0.325 0.139,-0.323C0.14,-0.328 0.144,-0.327 0.146,-0.328C0.143,-0.321 0.144,-0.324 0.145,-0.319C0.148,-0.317 0.149,-0.321 0.151,-0.318C0.14,-0.305 0.142,-0.314 0.136,-0.311C0.134,-0.307 0.133,-0.303 0.135,-0.299C0.139,-0.292 0.128,-0.294 0.127,-0.283L0.126,-0.279C0.121,-0.277 0.118,-0.28 0.115,-0.281C0.115,-0.285 0.116,-0.287 0.118,-0.289C0.119,-0.29 0.121,-0.289 0.123,-0.289C0.124,-0.295 0.121,-0.296 0.126,-0.303C0.131,-0.31 0.135,-0.316 0.133,-0.318C0.131,-0.317 0.129,-0.316 0.127,-0.316C0.127,-0.318 0.127,-0.319 0.125,-0.321C0.114,-0.308 0.085,-0.253 0.082,-0.248C0.077,-0.258 0.074,-0.267 0.069,-0.275C0.064,-0.284 0.065,-0.294 0.06,-0.302C0.07,-0.32 0.32,-0.576 0.358,-0.708C0.426,-0.817 0.424,-0.93 0.382,-0.946C0.374,-0.949 0.329,-0.974 0.3,-0.967C0.291,-0.964 0.246,-0.968 0.227,-0.952C0.219,-0.945 0.172,-0.919 0.168,-0.909C0.166,-0.904 0.098,-0.839 0.094,-0.809C0.094,-0.809 0.027,-0.693 0.018,-0.637C0.021,-0.64 0.025,-0.641 0.028,-0.642C0.032,-0.636 0.032,-0.641 0.023,-0.611C0.025,-0.607 0.024,-0.604 0.022,-0.599C0.012,-0.582 0.018,-0.58 0.014,-0.572C0.012,-0.565 0.011,-0.558 0.01,-0.551C0.012,-0.552 0.013,-0.554 0.014,-0.555C0.018,-0.551 0.014,-0.548 0.015,-0.544C0.01,-0.544 0.016,-0.55 0.01,-0.551C0.006,-0.542 0.006,-0.527 0.007,-0.52C0.03,-0.562 0.01,-0.532 0.026,-0.577C0.024,-0.577 0.022,-0.577 0.022,-0.579C0.022,-0.584 0.024,-0.584 0.03,-0.585C0.03,-0.589 0.026,-0.59 0.023,-0.593L0.029,-0.597C0.028,-0.602 0.032,-0.602 0.033,-0.607C0.034,-0.611 0.034,-0.615 0.035,-0.62C0.035,-0.622 0.034,-0.624 0.033,-0.626C0.042,-0.629 0.042,-0.635 0.049,-0.655C0.054,-0.658 0.052,-0.656 0.058,-0.661C0.06,-0.656 0.06,-0.655 0.058,-0.654C0.052,-0.651 0.053,-0.645 0.052,-0.641C0.058,-0.636 0.055,-0.645 0.059,-0.647C0.062,-0.649 0.062,-0.652 0.064,-0.655L0.071,-0.652C0.069,-0.648 0.068,-0.643 0.067,-0.64C0.064,-0.637 0.061,-0.636 0.06,-0.633C0.058,-0.628 0.056,-0.623 0.057,-0.617C0.06,-0.614 0.058,-0.615 0.062,-0.614C0.055,-0.612 0.054,-0.611 0.054,-0.604C0.063,-0.606 0.064,-0.608 0.068,-0.605L0.071,-0.607C0.071,-0.592 0.067,-0.595 0.065,-0.579C0.056,-0.583 0.058,-0.581 0.057,-0.585C0.059,-0.586 0.061,-0.586 0.063,-0.587C0.064,-0.59 0.061,-0.591 0.063,-0.594C0.068,-0.601 0.056,-0.598 0.055,-0.604C0.053,-0.601 0.05,-0.598 0.05,-0.592C0.052,-0.594 0.054,-0.595 0.056,-0.596C0.052,-0.584 0.054,-0.588 0.052,-0.584L0.049,-0.587C0.048,-0.583 0.045,-0.586 0.043,-0.584C0.045,-0.578 0.047,-0.574 0.041,-0.568L0.041,-0.554L0.044,-0.551C0.038,-0.545 0.036,-0.538 0.037,-0.529C0.044,-0.531 0.038,-0.535 0.042,-0.539C0.043,-0.537 0.045,-0.536 0.048,-0.535C0.05,-0.538 0.052,-0.542 0.054,-0.546C0.051,-0.55 0.058,-0.554 0.055,-0.558C0.057,-0.562 0.056,-0.568 0.062,-0.569C0.065,-0.565 0.059,-0.565 0.06,-0.562L0.063,-0.553L0.063,-0.552L0.063,-0.553C0.067,-0.554 0.067,-0.552 0.066,-0.561C0.069,-0.564 0.072,-0.568 0.071,-0.573C0.07,-0.579 0.076,-0.576 0.072,-0.586C0.083,-0.599 0.08,-0.592 0.077,-0.614L0.086,-0.619C0.096,-0.71 0.174,-0.841 0.201,-0.844C0.206,-0.853 0.211,-0.861 0.215,-0.869C0.21,-0.869 0.212,-0.871 0.215,-0.874L0.215,-0.869C0.261,-0.916 0.354,-0.977 0.374,-0.916C0.378,-0.905 0.383,-0.894 0.383,-0.882C0.383,-0.879 0.385,-0.871 0.385,-0.869C0.38,-0.795 0.316,-0.681 0.297,-0.659C0.278,-0.6 0.095,-0.396 0.054,-0.354C0.053,-0.355 0.051,-0.356 0.05,-0.356C0.05,-0.353 0.051,-0.35 0.048,-0.348C0.046,-0.35 0.048,-0.351 0.049,-0.352C0.049,-0.354 0.049,-0.355 0.05,-0.356C0.053,-0.361 0.053,-0.361 0.053,-0.367C0.052,-0.365 0.051,-0.363 0.049,-0.361C0.048,-0.372 0.057,-0.372 0.054,-0.38C0.051,-0.385 0.054,-0.386 0.054,-0.404C0.05,-0.409 0.051,-0.417 0.049,-0.423C0.049,-0.432 0.049,-0.441 0.05,-0.449C0.052,-0.452 0.05,-0.459 0.05,-0.464C0.051,-0.472 0.051,-0.481 0.056,-0.489C0.058,-0.491 0.06,-0.495 0.058,-0.499C0.058,-0.499 0.063,-0.508 0.062,-0.514C0.05,-0.514 0.054,-0.499 0.047,-0.498C0.053,-0.49 0.049,-0.491 0.048,-0.477C0.047,-0.475 0.046,-0.476 0.045,-0.477C0.041,-0.489 0.044,-0.486 0.047,-0.498C0.039,-0.497 0.038,-0.499 0.045,-0.503C0.044,-0.506 0.044,-0.509 0.043,-0.513C0.049,-0.516 0.05,-0.523 0.053,-0.529C0.051,-0.532 0.05,-0.532 0.047,-0.531C0.044,-0.529 0.046,-0.524 0.041,-0.523C0.041,-0.523 0.04,-0.521 0.04,-0.52C0.036,-0.511 0.042,-0.499 0.033,-0.49C0.028,-0.485 0.026,-0.45 0.03,-0.444C0.042,-0.446 0.038,-0.452 0.041,-0.468C0.044,-0.46 0.043,-0.453 0.041,-0.446C0.038,-0.439 0.035,-0.444 0.03,-0.444C0.024,-0.438 0.029,-0.436 0.02,-0.43C0.023,-0.426 0.026,-0.418 0.022,-0.416C0.022,-0.418 0.021,-0.421 0.021,-0.425C0.017,-0.419 0.019,-0.414 0.017,-0.41C0.016,-0.408 0.014,-0.406 0.012,-0.405C0.012,-0.396 0.011,-0.399 0.016,-0.394C0.015,-0.389 0.016,-0.384 0.013,-0.379C0.009,-0.384 0.012,-0.388 0.014,-0.394C0.009,-0.389 0.007,-0.386 0.004,-0.382C-0.006,-0.371 0.016,-0.375 0.002,-0.362C0.002,-0.357 0.012,-0.359 0.001,-0.347C0.003,-0.343 0.004,-0.34 0.002,-0.336C0,-0.338 0,-0.342 -0.004,-0.342C-0.006,-0.342 -0.007,-0.346 -0.005,-0.348C-0.003,-0.35 -0.001,-0.351 -0.001,-0.354C-0.008,-0.355 -0.009,-0.356 -0.009,-0.36L-0.003,-0.363C-0.006,-0.369 -0.002,-0.382 0,-0.384C0.009,-0.394 0,-0.399 0.002,-0.403L0.006,-0.4C0.009,-0.405 0.005,-0.405 0.003,-0.407C0.009,-0.41 0.01,-0.414 0.008,-0.415C0.005,-0.418 0.006,-0.422 0.004,-0.426C-0.004,-0.415 0.004,-0.413 -0.003,-0.409C-0.005,-0.411 -0.006,-0.412 -0.008,-0.415C-0.001,-0.42 -0.004,-0.422 -0.002,-0.435C0.001,-0.436 0.001,-0.434 0.002,-0.433L0.006,-0.44C-0.001,-0.456 0.017,-0.465 0.001,-0.462C0,-0.468 0.001,-0.47 -0.003,-0.471L-0.003,-0.462C-0.007,-0.456 -0.007,-0.456 -0.008,-0.446C-0.009,-0.444 -0.009,-0.439 -0.011,-0.437L-0.011,-0.461C-0.01,-0.464 -0.006,-0.463 -0.006,-0.467C-0.009,-0.467 -0.011,-0.468 -0.013,-0.469C-0.016,-0.477 -0.009,-0.482 -0.009,-0.49C-0.01,-0.497 -0.007,-0.504 -0.006,-0.512L-0.011,-0.512C-0.019,-0.412 -0.071,-0.084 0.031,-0.055C0.048,-0.067 0.049,-0.068 0.054,-0.069C0.068,-0.073 0.066,-0.079 0.07,-0.084C0.087,-0.103 0.08,-0.105 0.088,-0.126C0.103,-0.167 0.107,-0.152 0.107,-0.171C0.109,-0.174 0.111,-0.176 0.113,-0.178C0.112,-0.194 0.121,-0.197 0.122,-0.202C0.124,-0.213 0.13,-0.215 0.131,-0.225C0.134,-0.226 0.133,-0.23 0.135,-0.232C0.135,-0.232 0.134,-0.234 0.134,-0.236C0.131,-0.232 0.129,-0.23 0.129,-0.226L0.126,-0.228L0.126,-0.227C0.125,-0.233 0.128,-0.237 0.129,-0.242L0.133,-0.243C0.134,-0.245 0.134,-0.249 0.136,-0.25C0.141,-0.254 0.143,-0.265 0.148,-0.265C0.147,-0.267 0.147,-0.267 0.149,-0.269C0.151,-0.268 0.149,-0.267 0.148,-0.265C0.14,-0.247 0.139,-0.254 0.137,-0.241C0.145,-0.241 0.142,-0.249 0.151,-0.255L0.151,-0.257C0.151,-0.262 0.157,-0.264 0.158,-0.27C0.162,-0.28 0.169,-0.289 0.174,-0.298C0.179,-0.306 0.179,-0.299 0.198,-0.307C0.224,-0.272 0.146,-0.025 0.186,0.094C0.188,0.102 0.188,0.107 0.191,0.109C0.201,0.116 0.188,0.12 0.196,0.13C0.209,0.147 0.225,0.165 0.246,0.157C0.304,0.135 0.299,0.104 0.316,0.089C0.336,0.071 0.375,-0.008 0.376,-0.013C0.384,-0.046 0.419,-0.086 0.419,-0.101C0.418,-0.125 0.509,-0.267 0.511,-0.271C0.52,-0.279 0.515,-0.287 0.514,-0.292ZM0.276,-0.926C0.278,-0.933 0.279,-0.934 0.287,-0.934C0.285,-0.93 0.281,-0.929 0.276,-0.926ZM0.252,-0.906C0.25,-0.906 0.25,-0.906 0.249,-0.907C0.25,-0.908 0.25,-0.908 0.252,-0.906C0.25,-0.909 0.252,-0.91 0.256,-0.912L0.252,-0.906ZM0.054,-0.635C0.052,-0.636 0.048,-0.628 0.047,-0.625C0.048,-0.624 0.05,-0.624 0.051,-0.623C0.054,-0.629 0.057,-0.634 0.054,-0.635ZM0.016,-0.63C0.016,-0.626 0.011,-0.604 -0.001,-0.57C0.01,-0.575 0.023,-0.619 0.016,-0.63ZM0.067,-0.623C0.07,-0.626 0.069,-0.625 0.071,-0.624C0.069,-0.623 0.069,-0.623 0.067,-0.623ZM0.066,-0.622L0.064,-0.614C0.061,-0.62 0.061,-0.62 0.066,-0.622ZM0.043,-0.606C0.043,-0.605 0.044,-0.605 0.044,-0.605C0.048,-0.609 0.052,-0.613 0.045,-0.613C0.044,-0.611 0.044,-0.608 0.043,-0.606ZM0,-0.57L-0.001,-0.57C-0.001,-0.57 0,-0.57 0,-0.569L0,-0.57ZM0,-0.569L0,-0.565C0.002,-0.567 0.001,-0.569 0,-0.569ZM-0.004,-0.531C-0.004,-0.535 -0.001,-0.539 0,-0.543C0.003,-0.551 -0.004,-0.547 0.003,-0.561C0.001,-0.56 -0.001,-0.56 -0.001,-0.56C-0.004,-0.557 -0.009,-0.521 -0.008,-0.519C-0.006,-0.523 -0.005,-0.526 -0.004,-0.531ZM0.06,-0.545L0.063,-0.552C0.057,-0.553 0.055,-0.544 0.06,-0.545ZM0.068,-0.542C0.066,-0.543 0.065,-0.544 0.064,-0.545C0.062,-0.541 0.06,-0.539 0.058,-0.536C0.058,-0.535 0.058,-0.534 0.059,-0.534C0.063,-0.535 0.065,-0.538 0.068,-0.542ZM0.054,-0.522L0.058,-0.516C0.059,-0.524 0.066,-0.526 0.066,-0.533C0.06,-0.531 0.055,-0.528 0.054,-0.522ZM0.035,-0.517C0.035,-0.518 0.038,-0.519 0.036,-0.521C0.035,-0.52 0.035,-0.521 0.035,-0.517ZM0.03,-0.516C0.03,-0.514 0.029,-0.515 0.031,-0.514C0.032,-0.516 0.032,-0.515 0.03,-0.516ZM0.001,-0.479C0.001,-0.483 0.005,-0.482 0.007,-0.483C-0.001,-0.504 0.006,-0.514 0.01,-0.506C0.013,-0.508 0.013,-0.511 0.013,-0.514C0.01,-0.515 0.007,-0.515 0.004,-0.515C0.002,-0.505 0.002,-0.505 -0.004,-0.498C-0.001,-0.482 0.003,-0.501 -0.003,-0.471C-0.001,-0.473 0.002,-0.475 0.001,-0.479ZM0.021,-0.475C0.02,-0.474 0.017,-0.474 0.018,-0.473C0.019,-0.472 0.02,-0.473 0.021,-0.475ZM0.016,-0.436C0.026,-0.438 0.024,-0.442 0.025,-0.464C0.022,-0.461 0.02,-0.459 0.018,-0.456C0.02,-0.453 0.021,-0.449 0.018,-0.447C0.015,-0.443 0.016,-0.44 0.016,-0.436ZM0.164,-0.35C0.164,-0.346 0.165,-0.347 0.156,-0.34C0.155,-0.335 0.152,-0.331 0.147,-0.33C0.149,-0.335 0.151,-0.338 0.156,-0.34C0.157,-0.345 0.159,-0.349 0.164,-0.35C0.166,-0.355 0.168,-0.359 0.173,-0.361C0.175,-0.358 0.17,-0.355 0.164,-0.35ZM0.126,-0.315C0.127,-0.313 0.127,-0.314 0.125,-0.313C0.125,-0.315 0.125,-0.314 0.126,-0.315ZM0.168,-0.299C0.168,-0.3 0.168,-0.3 0.169,-0.301L0.169,-0.3C0.169,-0.3 0.168,-0.3 0.168,-0.299ZM0.15,-0.275C0.152,-0.277 0.151,-0.276 0.153,-0.275C0.15,-0.273 0.151,-0.274 0.15,-0.275ZM0.134,-0.27L0.135,-0.269C0.135,-0.269 0.134,-0.269 0.134,-0.27ZM0.095,-0.259L0.094,-0.26C0.095,-0.259 0.095,-0.26 0.095,-0.259ZM0.094,-0.258L0.093,-0.256C0.093,-0.258 0.092,-0.258 0.094,-0.258ZM0.273,-0.22C0.273,-0.222 0.274,-0.222 0.274,-0.223L0.273,-0.224C0.271,-0.222 0.272,-0.222 0.273,-0.22ZM0.386,-0.108C0.385,-0.109 0.385,-0.108 0.387,-0.11C0.387,-0.11 0.387,-0.109 0.386,-0.108Z" style="fill-rule:nonzero;"/>
            </g>
            <g transform="matrix(24,0,0,24,129.252,37.5187)">
                <path d="M0.042,-0.45C0.053,-0.414 0.094,-0.46 0.072,-0.473C0.06,-0.481 0.038,-0.476 0.039,-0.463L0.042,-0.45ZM0.316,-0.305C0.291,-0.285 0.311,-0.293 0.218,-0.168C0.199,-0.142 0.152,-0.098 0.153,-0.099C0.136,-0.083 0.142,-0.085 0.117,-0.078C0.114,-0.078 0.106,-0.075 0.099,-0.081C0.054,-0.116 0.081,-0.104 0.063,-0.144C0.063,-0.146 0.062,-0.148 0.062,-0.15C0.04,-0.353 0.13,-0.393 0.051,-0.407C0.037,-0.409 0.018,-0.408 0.013,-0.394C0.003,-0.367 -0.002,-0.383 -0.022,-0.281C-0.027,-0.253 -0.031,-0.205 -0.031,-0.205C-0.024,-0.152 -0.021,-0.109 0.012,-0.067C0.029,-0.046 0.03,-0.044 0.04,-0.04C0.061,-0.03 0.068,-0.023 0.089,-0.029C0.113,-0.036 0.124,-0.039 0.14,-0.051C0.157,-0.064 0.147,-0.05 0.177,-0.077C0.195,-0.093 0.232,-0.124 0.241,-0.141C0.25,-0.156 0.268,-0.165 0.278,-0.182C0.28,-0.186 0.336,-0.263 0.338,-0.291C0.339,-0.302 0.323,-0.311 0.316,-0.305ZM0.079,-0.055L0.073,-0.056C0.071,-0.061 0.076,-0.058 0.08,-0.056L0.079,-0.055Z" style="fill-rule:nonzero;"/>
            </g>
            <g transform="matrix(24,0,0,24,136.86,37.5187)">
                <path d="M0.293,-0.302C0.255,-0.307 0.269,-0.285 0.203,-0.228C0.2,-0.225 0.195,-0.223 0.195,-0.217C0.195,-0.215 0.14,-0.168 0.141,-0.168C0.129,-0.163 0.134,-0.16 0.129,-0.156C0.085,-0.127 0.072,-0.124 0.049,-0.128C0.043,-0.129 0.038,-0.131 0.041,-0.159C0.043,-0.172 0.036,-0.178 0.038,-0.186C0.04,-0.191 0.039,-0.195 0.039,-0.199C0.039,-0.221 0.044,-0.242 0.044,-0.242C0.052,-0.263 0.037,-0.304 0.09,-0.352C0.149,-0.405 0.13,-0.354 0.131,-0.322C0.139,-0.314 0.142,-0.309 0.151,-0.31C0.167,-0.313 0.169,-0.312 0.169,-0.319C0.168,-0.342 0.189,-0.372 0.152,-0.404C0.134,-0.419 0.071,-0.409 0.024,-0.343C0.007,-0.319 -0.012,-0.269 -0.011,-0.268C-0.009,-0.26 -0.019,-0.234 -0.021,-0.23C-0.023,-0.227 -0.018,-0.225 -0.021,-0.222C-0.021,-0.208 -0.028,-0.195 -0.024,-0.181C-0.027,-0.139 -0.013,-0.107 -0.013,-0.108C-0.008,-0.091 0.018,-0.071 0.021,-0.071C0.103,-0.066 0.123,-0.086 0.254,-0.214C0.274,-0.233 0.32,-0.299 0.293,-0.302ZM0.029,-0.315C0.028,-0.314 0.028,-0.313 0.027,-0.313C0.02,-0.305 0.019,-0.293 0.013,-0.285L0.018,-0.269L0.02,-0.269C0.019,-0.262 0.019,-0.262 0.009,-0.251C0.013,-0.235 0.014,-0.232 0.011,-0.228C0.009,-0.225 0.013,-0.221 0.01,-0.218C0.007,-0.216 0.008,-0.212 0.009,-0.208C0.01,-0.204 0.006,-0.201 0.009,-0.197L0.003,-0.189C0.01,-0.181 0,-0.177 0.005,-0.171C0.008,-0.167 0.006,-0.16 0.001,-0.159L0.001,-0.166C-0.001,-0.168 -0.005,-0.168 -0.002,-0.172C-0.002,-0.172 -0.012,-0.189 -0.005,-0.225C-0.003,-0.237 -0.004,-0.255 0.003,-0.272C0.007,-0.283 0.008,-0.293 0.01,-0.305L0.015,-0.306C0.02,-0.311 0.015,-0.305 0.029,-0.328C0.036,-0.328 0.029,-0.323 0.029,-0.315ZM0.012,-0.312L0.014,-0.312L0.013,-0.309L0.011,-0.31L0.012,-0.312ZM0.024,-0.233C0.023,-0.234 0.023,-0.234 0.023,-0.236L0.024,-0.233ZM0.014,-0.202L0.014,-0.206C0.014,-0.208 0.015,-0.209 0.017,-0.208L0.019,-0.207C0.021,-0.204 0.016,-0.203 0.014,-0.202ZM0.012,-0.174C0.009,-0.178 0.009,-0.181 0.012,-0.184L0.012,-0.174Z" style="fill-rule:nonzero;"/>
            </g>
            <g transform="matrix(24,0,0,24,142.812,37.5187)">
                <path d="M0.643,-0.258C0.636,-0.32 0.629,-0.349 0.629,-0.349C0.627,-0.371 0.582,-0.396 0.568,-0.367C0.56,-0.35 0.573,-0.348 0.575,-0.335C0.575,-0.333 0.58,-0.3 0.584,-0.288C0.584,-0.289 0.586,-0.289 0.588,-0.288L0.585,-0.284C0.585,-0.283 0.586,-0.283 0.586,-0.283C0.589,-0.285 0.59,-0.283 0.591,-0.28C0.591,-0.279 0.591,-0.279 0.59,-0.278C0.58,-0.272 0.592,-0.275 0.592,-0.268C0.593,-0.259 0.593,-0.241 0.593,-0.241C0.594,-0.24 0.596,-0.24 0.598,-0.24C0.6,-0.245 0.604,-0.249 0.611,-0.25C0.613,-0.228 0.611,-0.231 0.605,-0.228C0.61,-0.21 0.605,-0.165 0.594,-0.156C0.6,-0.149 0.591,-0.148 0.595,-0.138C0.592,-0.137 0.589,-0.137 0.586,-0.136C0.579,-0.142 0.576,-0.146 0.576,-0.148C0.579,-0.151 0.582,-0.145 0.585,-0.148C0.584,-0.15 0.584,-0.152 0.584,-0.154C0.597,-0.169 0.567,-0.156 0.574,-0.145C0.544,-0.118 0.58,-0.139 0.53,-0.101C0.53,-0.089 0.531,-0.09 0.526,-0.09C0.525,-0.092 0.528,-0.093 0.529,-0.094L0.523,-0.097C0.511,-0.089 0.508,-0.089 0.508,-0.083C0.509,-0.083 0.51,-0.083 0.511,-0.082C0.512,-0.078 0.501,-0.074 0.494,-0.075C0.494,-0.072 0.486,-0.069 0.48,-0.073C0.484,-0.078 0.48,-0.078 0.495,-0.075C0.496,-0.077 0.498,-0.078 0.499,-0.079L0.5,-0.079C0.503,-0.079 0.506,-0.079 0.508,-0.083C0.502,-0.085 0.502,-0.085 0.499,-0.079C0.489,-0.081 0.444,-0.076 0.44,-0.073C0.442,-0.068 0.448,-0.072 0.451,-0.068C0.445,-0.067 0.384,-0.08 0.368,-0.09C0.369,-0.092 0.37,-0.093 0.371,-0.094C0.367,-0.099 0.348,-0.117 0.331,-0.127C0.331,-0.13 0.314,-0.142 0.313,-0.143C0.267,-0.185 0.255,-0.225 0.221,-0.245C0.219,-0.249 0.218,-0.253 0.215,-0.255C0.196,-0.272 0.195,-0.261 0.192,-0.271C0.19,-0.27 0.189,-0.27 0.186,-0.269C0.188,-0.272 0.188,-0.272 0.192,-0.273C0.186,-0.279 0.181,-0.286 0.173,-0.29C0.16,-0.306 0.116,-0.307 0.11,-0.314C0.114,-0.318 0.135,-0.339 0.145,-0.339C0.162,-0.359 0.212,-0.388 0.25,-0.456C0.253,-0.46 0.255,-0.465 0.252,-0.468C0.233,-0.486 0.228,-0.486 0.223,-0.479C0.149,-0.387 0.065,-0.359 0.061,-0.359C0.063,-0.363 0.067,-0.365 0.067,-0.37L0.061,-0.374C0.061,-0.383 0.057,-0.387 0.063,-0.392C0.056,-0.406 0.175,-0.524 0.191,-0.547C0.194,-0.551 0.265,-0.644 0.261,-0.667C0.27,-0.668 0.27,-0.681 0.271,-0.685C0.271,-0.689 0.271,-0.693 0.275,-0.694C0.276,-0.694 0.277,-0.696 0.276,-0.696C0.276,-0.698 0.279,-0.711 0.283,-0.714C0.285,-0.717 0.283,-0.719 0.282,-0.722C0.29,-0.72 0.287,-0.727 0.296,-0.74C0.306,-0.753 0.316,-0.792 0.301,-0.765C0.3,-0.762 0.298,-0.763 0.296,-0.764C0.301,-0.779 0.311,-0.805 0.31,-0.815L0.319,-0.818C0.32,-0.821 0.321,-0.823 0.321,-0.825L0.318,-0.84C0.327,-0.841 0.323,-0.839 0.321,-0.865C0.322,-0.867 0.324,-0.869 0.326,-0.872C0.32,-0.88 0.334,-0.878 0.32,-0.891C0.321,-0.899 0.32,-0.896 0.32,-0.904C0.322,-0.903 0.322,-0.902 0.323,-0.901C0.33,-0.93 0.308,-0.952 0.307,-0.959C0.307,-0.962 0.29,-0.976 0.29,-0.976C0.29,-0.988 0.259,-0.996 0.248,-1C0.177,-1.025 0.062,-0.933 0.063,-0.891L0.078,-0.911C0.078,-0.912 0.077,-0.913 0.077,-0.915C0.079,-0.916 0.082,-0.917 0.083,-0.919C0.091,-0.921 0.096,-0.93 0.102,-0.932C0.101,-0.929 0.083,-0.907 0.083,-0.906C0.072,-0.901 0.046,-0.843 0.041,-0.838C0.029,-0.815 0.036,-0.836 0.024,-0.792C0.024,-0.791 0.023,-0.791 0.022,-0.79C0.021,-0.791 0.021,-0.792 0.021,-0.793C0.014,-0.788 0.024,-0.785 0.017,-0.781C0.016,-0.78 0.017,-0.778 0.017,-0.777L0.016,-0.777C0.018,-0.775 0.018,-0.774 0.016,-0.772L0.017,-0.772C0.017,-0.772 -0.015,-0.642 -0.009,-0.608C-0.003,-0.62 -0.009,-0.621 -0.001,-0.634L-0.004,-0.522C0.003,-0.515 -0.003,-0.515 0.001,-0.509C0.001,-0.512 0.002,-0.515 0.003,-0.517C0.006,-0.518 0.009,-0.518 0.011,-0.517C0.01,-0.51 0.009,-0.517 0.014,-0.494C0.015,-0.5 0.015,-0.5 0.02,-0.506C0.028,-0.475 0.016,-0.492 0.011,-0.483C0.011,-0.475 0.017,-0.475 0.021,-0.475C0.021,-0.467 0.021,-0.476 0.011,-0.451L0.015,-0.448C0.017,-0.45 0.018,-0.451 0.02,-0.454C0.02,-0.45 0.02,-0.449 0.019,-0.447C0.013,-0.447 0.007,-0.448 0.003,-0.443C0.007,-0.444 0.009,-0.441 0.003,-0.443C-0.004,-0.455 0.008,-0.476 -0.003,-0.475C-0.007,-0.464 -0.006,-0.407 -0.006,-0.402C0.002,-0.411 -0.002,-0.408 0.008,-0.415C0.008,-0.419 0.008,-0.424 0.014,-0.424C0.019,-0.434 0.024,-0.415 0.014,-0.42L0.014,-0.419C0.011,-0.411 0.009,-0.4 -0.005,-0.391C-0.01,-0.38 -0.022,-0.382 -0.02,-0.374C-0.018,-0.372 -0.021,-0.374 -0.004,-0.366C0.012,-0.374 0.011,-0.374 0.016,-0.366L0.019,-0.374C0.025,-0.369 0.022,-0.37 0.031,-0.369C0.032,-0.363 0.028,-0.342 0.027,-0.337C0.005,-0.321 0.008,-0.31 -0.003,-0.305C-0.005,-0.306 -0.005,-0.308 -0.008,-0.306C-0.018,-0.273 0.023,-0.264 0.028,-0.257C0.025,-0.253 0.024,-0.247 0.028,-0.243C0.031,-0.248 0.029,-0.254 0.033,-0.258C0.039,-0.253 0.037,-0.228 0.036,-0.22C0.039,-0.218 0.042,-0.217 0.04,-0.212L0.036,-0.22C0.035,-0.204 0.038,-0.207 0.043,-0.206L0.041,-0.201C0.037,-0.185 0.043,-0.181 0.027,-0.191C0.029,-0.192 0.03,-0.194 0.032,-0.195C0.031,-0.201 0.031,-0.198 0.032,-0.205C0.025,-0.203 0.02,-0.201 0.014,-0.199C0.015,-0.203 0.015,-0.206 0.015,-0.21C0.015,-0.212 0.012,-0.214 0.01,-0.21C0.01,-0.208 0.012,-0.205 0.013,-0.203C0.009,-0.202 0.006,-0.2 0.003,-0.199C0.003,-0.195 0.003,-0.169 0.008,-0.168C0.009,-0.162 0.007,-0.162 0.003,-0.156L-0.004,-0.156C-0.009,-0.147 0.01,-0.062 0.011,-0.058C0.021,-0.013 0.022,-0.034 0.034,-0.015C0.039,-0.007 0.071,0.016 0.09,-0.022C0.094,-0.03 0.084,-0.042 0.09,-0.056C0.091,-0.057 0.087,-0.058 0.086,-0.055C0.085,-0.052 0.082,-0.048 0.084,-0.044C0.085,-0.043 0.083,-0.041 0.082,-0.041C0.079,-0.04 0.079,-0.046 0.071,-0.067C0.072,-0.07 0.07,-0.072 0.069,-0.075C0.067,-0.077 0.07,-0.081 0.069,-0.084C0.066,-0.089 0.068,-0.085 0.064,-0.095C0.064,-0.097 0.065,-0.099 0.063,-0.101L0.06,-0.099C0.06,-0.126 0.047,-0.101 0.057,-0.082C0.053,-0.08 0.055,-0.075 0.053,-0.072C0.052,-0.073 0.051,-0.073 0.051,-0.074C0.047,-0.085 0.048,-0.084 0.045,-0.109L0.039,-0.13C0.036,-0.135 0.045,-0.138 0.038,-0.146C0.04,-0.15 0.038,-0.153 0.035,-0.16C0.037,-0.163 0.039,-0.166 0.039,-0.168C0.039,-0.171 0.039,-0.174 0.043,-0.175C0.044,-0.171 0.043,-0.166 0.047,-0.162C0.048,-0.162 0.05,-0.126 0.047,-0.121C0.068,-0.116 0.053,-0.124 0.058,-0.131C0.05,-0.136 0.057,-0.143 0.054,-0.154C0.053,-0.155 0.053,-0.156 0.053,-0.156C0.057,-0.16 0.055,-0.165 0.056,-0.169C0.059,-0.18 0.049,-0.18 0.052,-0.187C0.056,-0.196 0.046,-0.203 0.054,-0.213C0.055,-0.213 0.055,-0.214 0.055,-0.214C0.053,-0.214 0.051,-0.215 0.049,-0.215C0.047,-0.218 0.046,-0.221 0.045,-0.224C0.047,-0.226 0.048,-0.228 0.048,-0.23C0.048,-0.231 0.043,-0.255 0.044,-0.257C0.047,-0.258 0.05,-0.26 0.054,-0.257C0.052,-0.228 0.052,-0.234 0.055,-0.229L0.063,-0.234C0.06,-0.234 0.058,-0.234 0.056,-0.235C0.059,-0.24 0.061,-0.254 0.055,-0.257C0.071,-0.264 0.096,-0.259 0.104,-0.253C0.109,-0.256 0.109,-0.26 0.123,-0.245C0.131,-0.261 0.237,-0.162 0.246,-0.16C0.253,-0.139 0.319,-0.077 0.332,-0.071C0.336,-0.069 0.402,-0.038 0.42,-0.043C0.438,-0.041 0.481,-0.043 0.494,-0.049C0.493,-0.05 0.491,-0.051 0.489,-0.052C0.492,-0.055 0.495,-0.055 0.5,-0.056C0.497,-0.053 0.495,-0.051 0.494,-0.049C0.51,-0.054 0.534,-0.063 0.543,-0.078C0.559,-0.078 0.61,-0.121 0.623,-0.163C0.619,-0.161 0.613,-0.158 0.615,-0.166L0.623,-0.163C0.623,-0.16 0.625,-0.16 0.627,-0.16C0.631,-0.17 0.631,-0.17 0.635,-0.174C0.63,-0.18 0.636,-0.185 0.635,-0.192C0.633,-0.19 0.63,-0.19 0.628,-0.192C0.633,-0.2 0.631,-0.205 0.638,-0.212C0.637,-0.22 0.647,-0.217 0.636,-0.23L0.642,-0.235C0.636,-0.24 0.643,-0.25 0.643,-0.258ZM0.052,-0.53C0.051,-0.532 0.051,-0.534 0.051,-0.536L0.048,-0.536C0.049,-0.537 0.049,-0.536 0.05,-0.536C0.05,-0.556 0.051,-0.547 0.053,-0.553C0.054,-0.556 0.054,-0.563 0.055,-0.564C0.055,-0.562 0.055,-0.561 0.056,-0.559C0.058,-0.558 0.058,-0.558 0.059,-0.565L0.056,-0.568C0.056,-0.572 0.062,-0.575 0.058,-0.587C0.058,-0.588 0.06,-0.649 0.058,-0.651L0.058,-0.653C0.061,-0.656 0.06,-0.661 0.06,-0.665C0.061,-0.671 0.069,-0.69 0.065,-0.7L0.061,-0.696C0.06,-0.698 0.062,-0.706 0.062,-0.707C0.063,-0.708 0.064,-0.708 0.065,-0.708C0.065,-0.928 0.233,-1.016 0.274,-0.97C0.312,-0.927 0.297,-0.866 0.296,-0.861C0.298,-0.783 0.157,-0.551 0.063,-0.469C0.05,-0.456 0.058,-0.507 0.056,-0.511C0.053,-0.512 0.054,-0.508 0.052,-0.508C0.044,-0.51 0.045,-0.512 0.05,-0.519C0.048,-0.527 0.048,-0.527 0.052,-0.53ZM0.315,-0.936C0.315,-0.935 0.316,-0.934 0.316,-0.933C0.315,-0.933 0.313,-0.934 0.315,-0.936ZM0.052,-0.87C0.052,-0.869 0.051,-0.869 0.051,-0.868C0.053,-0.868 0.054,-0.867 0.052,-0.87ZM0.319,-0.85C0.32,-0.847 0.319,-0.845 0.317,-0.844C0.315,-0.846 0.316,-0.848 0.319,-0.85ZM0.316,-0.802L0.316,-0.803L0.316,-0.802ZM0.312,-0.797C0.315,-0.798 0.316,-0.8 0.316,-0.802C0.313,-0.801 0.315,-0.802 0.312,-0.797ZM0.272,-0.712C0.271,-0.712 0.271,-0.713 0.271,-0.713C0.27,-0.714 0.273,-0.715 0.272,-0.712ZM0.001,-0.664L0.003,-0.664C0.006,-0.654 0.003,-0.668 0.002,-0.643C-0.003,-0.641 -0.002,-0.644 0.001,-0.664ZM0.002,-0.582L0.009,-0.586C0.01,-0.592 0.007,-0.597 0.012,-0.601C0.017,-0.583 0.007,-0.513 0.002,-0.582ZM0.004,-0.526L0.01,-0.534C0.014,-0.53 0.014,-0.524 0.004,-0.526ZM0.019,-0.522L0.019,-0.527C0.022,-0.525 0.022,-0.525 0.019,-0.522ZM-0.004,-0.521L-0.004,-0.522L-0.004,-0.521ZM-0.004,-0.521C-0.003,-0.52 -0.003,-0.519 -0.003,-0.517C-0.002,-0.52 -0.002,-0.519 -0.004,-0.521ZM0.018,-0.515C0.02,-0.515 0.019,-0.516 0.02,-0.513C0.018,-0.513 0.019,-0.512 0.018,-0.515ZM0.061,-0.509L0.058,-0.496C0.066,-0.495 0.063,-0.501 0.061,-0.509ZM0.044,-0.498C0.045,-0.497 0.045,-0.498 0.044,-0.495C0.044,-0.496 0.043,-0.496 0.044,-0.498ZM0.001,-0.485C-0.001,-0.486 0,-0.487 -0.003,-0.485L-0.001,-0.483C0,-0.484 0,-0.485 0.001,-0.485ZM0.047,-0.457C0.047,-0.46 0.048,-0.463 0.048,-0.466C0.055,-0.461 0.051,-0.459 0.047,-0.457ZM0.018,-0.458C0.017,-0.46 0.017,-0.461 0.019,-0.46C0.019,-0.459 0.018,-0.459 0.018,-0.458ZM0.045,-0.455L0.049,-0.455C0.05,-0.453 0.05,-0.453 0.045,-0.449L0.045,-0.455ZM0.045,-0.448C0.045,-0.447 0.045,-0.447 0.044,-0.446L0.044,-0.447L0.045,-0.448ZM-0.016,-0.422L-0.013,-0.422C-0.015,-0.425 -0.016,-0.424 -0.016,-0.422ZM0.014,-0.424L0.014,-0.42C0.017,-0.421 0.017,-0.421 0.014,-0.424ZM-0.006,-0.398C-0.006,-0.394 -0.005,-0.393 -0.005,-0.391C-0.005,-0.393 -0.004,-0.395 -0.006,-0.398ZM0.036,-0.345C0.034,-0.348 0.04,-0.351 0.036,-0.354C0.037,-0.367 0.037,-0.362 0.036,-0.373C0.041,-0.375 0.046,-0.376 0.052,-0.378C0.049,-0.38 0.047,-0.382 0.044,-0.383C0.042,-0.381 0.04,-0.379 0.038,-0.376C0.033,-0.379 0.036,-0.383 0.038,-0.384C0.047,-0.385 0.049,-0.393 0.054,-0.395C0.064,-0.39 0.05,-0.373 0.06,-0.367L0.057,-0.356C0.057,-0.356 0.056,-0.357 0.056,-0.358C0.05,-0.371 0.05,-0.346 0.036,-0.345ZM0.016,-0.358C0.015,-0.357 0.015,-0.355 0.014,-0.353C0.02,-0.351 0.02,-0.358 0.016,-0.358ZM0.018,-0.34C0.018,-0.343 0.019,-0.345 0.019,-0.349C0.012,-0.346 0.014,-0.338 0.018,-0.34ZM0.584,-0.288C0.583,-0.287 0.584,-0.285 0.585,-0.283L0.585,-0.284C0.585,-0.284 0.584,-0.286 0.584,-0.288ZM0.586,-0.283L0.585,-0.283L0.586,-0.283ZM0.197,-0.271C0.196,-0.274 0.193,-0.273 0.192,-0.273L0.192,-0.271L0.197,-0.271ZM0.607,-0.257L0.61,-0.255C0.608,-0.251 0.606,-0.253 0.607,-0.257ZM0.625,-0.254C0.623,-0.253 0.622,-0.252 0.621,-0.252C0.617,-0.25 0.621,-0.26 0.625,-0.254ZM0.583,-0.231C0.592,-0.227 0.588,-0.242 0.587,-0.247C0.584,-0.241 0.584,-0.236 0.583,-0.231ZM0.621,-0.229C0.619,-0.231 0.618,-0.233 0.617,-0.234C0.624,-0.251 0.629,-0.252 0.621,-0.229ZM0.036,-0.228C0.032,-0.231 0.031,-0.235 0.027,-0.237C0.024,-0.221 0.027,-0.23 0.019,-0.222C0.022,-0.216 0.021,-0.219 0.022,-0.211L0.027,-0.214C0.023,-0.225 0.026,-0.22 0.036,-0.228ZM0.002,-0.234L0.001,-0.235C-0.001,-0.233 0,-0.234 0.001,-0.232C0.001,-0.233 0.002,-0.233 0.002,-0.234ZM0.23,-0.234C0.232,-0.234 0.232,-0.235 0.233,-0.233C0.231,-0.232 0.231,-0.232 0.23,-0.234ZM0.592,-0.228L0.589,-0.219C0.596,-0.216 0.593,-0.217 0.599,-0.213C0.598,-0.22 0.598,-0.217 0.6,-0.224C0.597,-0.226 0.595,-0.227 0.592,-0.228ZM0.063,-0.213C0.064,-0.217 0.064,-0.217 0.062,-0.223C0.062,-0.217 0.062,-0.219 0.063,-0.213ZM0.626,-0.221C0.628,-0.22 0.628,-0.221 0.628,-0.217C0.625,-0.218 0.625,-0.217 0.626,-0.221ZM0.627,-0.172L0.621,-0.178C0.615,-0.171 0.616,-0.169 0.61,-0.168C0.608,-0.17 0.609,-0.173 0.61,-0.175C0.619,-0.198 0.603,-0.198 0.617,-0.207C0.616,-0.213 0.615,-0.217 0.62,-0.22C0.624,-0.214 0.617,-0.193 0.617,-0.189C0.623,-0.188 0.631,-0.181 0.627,-0.172ZM0.004,-0.207C0.007,-0.211 0.009,-0.215 0.007,-0.219L0.004,-0.207ZM0.599,-0.209C0.594,-0.205 0.593,-0.205 0.597,-0.199L0.6,-0.208C0.599,-0.208 0.599,-0.209 0.599,-0.209ZM0.587,-0.201C0.59,-0.204 0.59,-0.204 0.591,-0.208C0.586,-0.206 0.586,-0.206 0.587,-0.201ZM0.582,-0.204C0.581,-0.195 0.576,-0.186 0.577,-0.177C0.578,-0.176 0.579,-0.176 0.58,-0.176C0.584,-0.184 0.583,-0.184 0.582,-0.204ZM0.007,-0.198L0.014,-0.198L0.014,-0.199L0.016,-0.194C0.015,-0.194 0.008,-0.197 0.007,-0.198ZM0.589,-0.192C0.591,-0.193 0.593,-0.193 0.594,-0.193C0.595,-0.194 0.595,-0.198 0.589,-0.192ZM0.061,-0.191C0.061,-0.192 0.062,-0.192 0.062,-0.193C0.062,-0.193 0.061,-0.193 0.061,-0.194C0.06,-0.192 0.06,-0.192 0.061,-0.191ZM0.024,-0.162C0.023,-0.162 0.017,-0.168 0.016,-0.169C0.018,-0.171 0.019,-0.172 0.021,-0.173L0.017,-0.178C0.02,-0.182 0.02,-0.182 0.021,-0.19C0.033,-0.182 0.026,-0.185 0.025,-0.171C0.03,-0.17 0.03,-0.17 0.03,-0.165C0.027,-0.165 0.025,-0.165 0.024,-0.162ZM0.591,-0.183C0.594,-0.184 0.596,-0.186 0.598,-0.188C0.592,-0.19 0.592,-0.19 0.591,-0.183ZM0.018,-0.182C0.018,-0.181 0.017,-0.18 0.017,-0.179C0.017,-0.18 0.017,-0.181 0.018,-0.182ZM-0.001,-0.176L-0.003,-0.178C-0.005,-0.176 -0.003,-0.175 -0.001,-0.176ZM-0.002,-0.162C-0.002,-0.163 -0.001,-0.163 0,-0.163C-0.002,-0.168 -0.001,-0.166 -0.003,-0.168C-0.004,-0.165 -0.005,-0.167 -0.002,-0.162ZM0.606,-0.156C0.604,-0.156 0.604,-0.155 0.603,-0.156C0.605,-0.157 0.604,-0.157 0.606,-0.156ZM0.608,-0.144L0.604,-0.148L0.599,-0.148C0.601,-0.154 0.606,-0.155 0.612,-0.144L0.608,-0.144ZM0.004,-0.141C0.004,-0.143 0.003,-0.142 0.005,-0.144C0.005,-0.143 0.006,-0.143 0.006,-0.142C0.005,-0.142 0.005,-0.142 0.004,-0.141ZM0.571,-0.132C0.572,-0.14 0.572,-0.14 0.577,-0.14C0.575,-0.138 0.574,-0.136 0.571,-0.132ZM0.026,-0.138L0.029,-0.136C0.026,-0.132 0.024,-0.134 0.026,-0.138ZM0.009,-0.105L0.009,-0.114C0.011,-0.111 0.011,-0.111 0.009,-0.105ZM0.296,-0.106L0.293,-0.109C0.294,-0.11 0.294,-0.11 0.295,-0.11C0.295,-0.109 0.296,-0.108 0.297,-0.107C0.296,-0.107 0.296,-0.106 0.296,-0.106ZM0.029,-0.088C0.03,-0.109 0.027,-0.093 0.031,-0.108C0.035,-0.11 0.041,-0.088 0.029,-0.088ZM0.097,-0.102C0.092,-0.106 0.093,-0.1 0.093,-0.096L0.095,-0.096C0.095,-0.098 0.096,-0.1 0.097,-0.102ZM0.3,-0.103C0.304,-0.103 0.305,-0.102 0.306,-0.099C0.303,-0.098 0.301,-0.1 0.3,-0.103ZM0.013,-0.092C0.012,-0.095 0.013,-0.094 0.013,-0.095C0.013,-0.094 0.014,-0.094 0.014,-0.093C0.014,-0.093 0.013,-0.093 0.013,-0.092ZM0.095,-0.088C0.095,-0.081 0.095,-0.081 0.098,-0.077C0.099,-0.087 0.099,-0.087 0.095,-0.088ZM0.363,-0.082C0.367,-0.082 0.367,-0.082 0.371,-0.079L0.363,-0.082ZM0.037,-0.081C0.038,-0.08 0.038,-0.08 0.038,-0.079C0.036,-0.078 0.036,-0.079 0.037,-0.081ZM0.06,-0.077C0.059,-0.076 0.059,-0.076 0.056,-0.076C0.057,-0.075 0.057,-0.075 0.057,-0.074C0.057,-0.075 0.057,-0.074 0.056,-0.076C0.058,-0.077 0.059,-0.077 0.06,-0.077ZM0.388,-0.075L0.382,-0.075C0.384,-0.077 0.386,-0.077 0.388,-0.075ZM0.081,-0.072C0.081,-0.075 0.081,-0.075 0.078,-0.076C0.079,-0.074 0.08,-0.073 0.081,-0.072ZM0.388,-0.074L0.389,-0.074L0.388,-0.074ZM0.058,-0.063C0.059,-0.063 0.062,-0.051 0.065,-0.045C0.059,-0.033 0.065,-0.039 0.078,-0.025C0.06,-0.029 0.061,-0.038 0.055,-0.056L0.058,-0.063ZM0.048,-0.04C0.047,-0.041 0.047,-0.041 0.046,-0.041C0.048,-0.043 0.049,-0.043 0.048,-0.04ZM0.081,-0.033L0.08,-0.032C0.073,-0.038 0.08,-0.038 0.081,-0.033Z" style="fill-rule:nonzero;"/>
            </g>
            <g transform="matrix(24,0,0,24,167.652,37.5187)">
                <path d="M0.914,-0.286C0.871,-0.237 0.921,-0.281 0.826,-0.194C0.786,-0.16 0.728,-0.113 0.702,-0.123C0.664,-0.142 0.69,-0.294 0.69,-0.295C0.69,-0.313 0.726,-0.514 0.736,-0.529C0.738,-0.533 0.739,-0.536 0.739,-0.54C0.739,-0.542 0.741,-0.556 0.744,-0.567C0.747,-0.575 0.746,-0.571 0.748,-0.582C0.752,-0.599 0.753,-0.606 0.753,-0.606L0.765,-0.645C0.768,-0.657 0.774,-0.662 0.778,-0.691C0.778,-0.715 0.789,-0.718 0.786,-0.733C0.782,-0.755 0.787,-0.761 0.787,-0.779C0.787,-0.784 0.784,-0.788 0.786,-0.792C0.789,-0.797 0.786,-0.801 0.787,-0.805C0.789,-0.809 0.788,-0.813 0.789,-0.816L0.788,-0.818L0.782,-0.82C0.787,-0.831 0.783,-0.841 0.785,-0.851C0.782,-0.855 0.782,-0.856 0.782,-0.857C0.784,-0.862 0.779,-0.859 0.777,-0.861C0.781,-0.868 0.781,-0.868 0.773,-0.874L0.774,-0.879C0.762,-0.889 0.744,-0.899 0.733,-0.9C0.732,-0.9 0.73,-0.902 0.729,-0.903C0.727,-0.909 0.711,-0.908 0.708,-0.907C0.671,-0.899 0.645,-0.917 0.571,-0.851C0.56,-0.841 0.55,-0.83 0.541,-0.818C0.534,-0.811 0.527,-0.819 0.532,-0.803C0.45,-0.693 0.449,-0.671 0.412,-0.585C0.411,-0.581 0.408,-0.578 0.405,-0.575C0.402,-0.571 0.401,-0.566 0.399,-0.562L0.393,-0.549L0.391,-0.542C0.386,-0.53 0.381,-0.517 0.377,-0.505L0.375,-0.499C0.358,-0.451 0.36,-0.454 0.353,-0.452L0.355,-0.457C0.351,-0.457 0.351,-0.452 0.348,-0.451L0.347,-0.452L0.317,-0.534L0.321,-0.541L0.317,-0.545C0.32,-0.557 0.32,-0.577 0.296,-0.646C0.299,-0.649 0.405,-0.757 0.438,-0.858L0.449,-0.881C0.456,-0.893 0.447,-0.89 0.454,-0.904C0.454,-0.905 0.457,-0.905 0.459,-0.906C0.462,-0.911 0.462,-0.917 0.466,-0.922C0.47,-0.922 0.468,-0.958 0.472,-0.97C0.478,-0.999 0.454,-1.057 0.411,-1.07C0.282,-1.107 0.247,-1.015 0.221,-0.986C0.2,-0.921 0.146,-0.882 0.221,-0.643L0.221,-0.639C0.163,-0.573 0.161,-0.569 0.161,-0.569C-0.013,-0.395 -0.016,-0.234 0.027,-0.164C0.032,-0.159 0.034,-0.157 0.052,-0.16C0.075,-0.172 0.072,-0.202 0.066,-0.207C0.066,-0.208 0.061,-0.255 0.061,-0.251C0.055,-0.329 0.053,-0.295 0.067,-0.365C0.071,-0.394 0.104,-0.459 0.14,-0.492C0.22,-0.572 0.215,-0.57 0.222,-0.571C0.226,-0.558 0.264,-0.379 0.26,-0.366C0.259,-0.364 0.259,-0.361 0.26,-0.358C0.263,-0.343 0.266,-0.328 0.265,-0.313C0.265,-0.304 0.268,-0.296 0.265,-0.287C0.264,-0.286 0.265,-0.284 0.265,-0.282C0.267,-0.273 0.268,-0.263 0.268,-0.254C0.268,-0.233 0.281,-0.188 0.278,-0.171C0.278,-0.17 0.262,-0.053 0.262,-0.049C0.262,-0.026 0.225,0.073 0.272,0.092C0.286,0.097 0.294,0.102 0.303,0.095C0.325,0.084 0.318,0.084 0.326,0.076C0.324,0.069 0.324,0.069 0.326,0.066C0.375,-0.007 0.376,-0.097 0.373,-0.102C0.367,-0.127 0.369,-0.117 0.369,-0.122C0.374,-0.132 0.376,-0.141 0.373,-0.152C0.372,-0.153 0.372,-0.154 0.373,-0.155C0.375,-0.158 0.375,-0.162 0.374,-0.165C0.373,-0.167 0.376,-0.17 0.375,-0.172C0.375,-0.178 0.373,-0.184 0.372,-0.191C0.381,-0.206 0.374,-0.219 0.374,-0.234C0.381,-0.269 0.368,-0.266 0.391,-0.346C0.404,-0.392 0.424,-0.433 0.432,-0.476L0.442,-0.51L0.446,-0.522C0.449,-0.529 0.453,-0.536 0.453,-0.544C0.451,-0.542 0.448,-0.539 0.448,-0.536C0.447,-0.533 0.447,-0.53 0.444,-0.529L0.443,-0.531C0.447,-0.544 0.445,-0.538 0.451,-0.556L0.451,-0.555C0.453,-0.555 0.455,-0.555 0.454,-0.552L0.453,-0.544C0.457,-0.548 0.48,-0.6 0.48,-0.601C0.482,-0.604 0.484,-0.608 0.482,-0.612C0.482,-0.613 0.483,-0.614 0.483,-0.615L0.489,-0.621C0.484,-0.639 0.519,-0.675 0.514,-0.685C0.511,-0.686 0.509,-0.682 0.507,-0.686C0.506,-0.688 0.509,-0.689 0.51,-0.69L0.512,-0.694L0.514,-0.69C0.526,-0.688 0.521,-0.704 0.53,-0.708C0.531,-0.709 0.532,-0.71 0.532,-0.711C0.531,-0.717 0.536,-0.719 0.539,-0.722L0.536,-0.733C0.538,-0.733 0.54,-0.732 0.542,-0.733C0.547,-0.737 0.551,-0.741 0.553,-0.747L0.554,-0.75L0.561,-0.754L0.562,-0.759L0.568,-0.761C0.571,-0.771 0.569,-0.774 0.568,-0.774C0.57,-0.774 0.573,-0.775 0.573,-0.775C0.577,-0.774 0.58,-0.776 0.582,-0.778C0.584,-0.779 0.584,-0.781 0.585,-0.783C0.602,-0.803 0.599,-0.785 0.642,-0.81C0.648,-0.813 0.654,-0.815 0.66,-0.815L0.681,-0.814C0.69,-0.814 0.688,-0.805 0.689,-0.803C0.704,-0.779 0.697,-0.749 0.697,-0.718C0.693,-0.701 0.69,-0.684 0.69,-0.683C0.686,-0.66 0.684,-0.658 0.69,-0.653C0.688,-0.65 0.687,-0.646 0.684,-0.644C0.677,-0.639 0.679,-0.63 0.678,-0.628C0.677,-0.625 0.679,-0.623 0.68,-0.62C0.679,-0.619 0.677,-0.619 0.677,-0.616C0.677,-0.598 0.669,-0.589 0.667,-0.571C0.667,-0.57 0.666,-0.568 0.666,-0.566C0.632,-0.453 0.631,-0.413 0.616,-0.37C0.612,-0.363 0.611,-0.356 0.613,-0.35C0.618,-0.336 0.607,-0.332 0.609,-0.319C0.609,-0.314 0.608,-0.31 0.607,-0.305C0.601,-0.302 0.605,-0.297 0.604,-0.293C0.603,-0.29 0.605,-0.288 0.605,-0.286C0.605,-0.275 0.603,-0.286 0.603,-0.271C0.603,-0.259 0.599,-0.266 0.599,-0.237L0.599,-0.197C0.599,-0.166 0.607,-0.161 0.604,-0.149C0.604,-0.136 0.612,-0.138 0.609,-0.13C0.609,-0.128 0.614,-0.124 0.615,-0.121C0.619,-0.105 0.632,-0.101 0.632,-0.095L0.629,-0.096C0.627,-0.093 0.628,-0.091 0.63,-0.089L0.633,-0.093L0.636,-0.089L0.63,-0.089C0.633,-0.087 0.636,-0.083 0.64,-0.083L0.641,-0.087L0.646,-0.084C0.647,-0.084 0.647,-0.083 0.647,-0.082C0.647,-0.081 0.645,-0.081 0.645,-0.081C0.651,-0.07 0.677,-0.071 0.687,-0.074C0.703,-0.077 0.705,-0.066 0.712,-0.073C0.717,-0.077 0.719,-0.077 0.717,-0.081L0.714,-0.081L0.715,-0.084L0.716,-0.085L0.717,-0.084L0.717,-0.081C0.763,-0.094 0.749,-0.076 0.813,-0.141C0.814,-0.147 0.82,-0.15 0.828,-0.156L0.829,-0.167C0.849,-0.17 0.912,-0.246 0.912,-0.247C0.924,-0.258 0.924,-0.255 0.922,-0.253C0.924,-0.253 0.926,-0.253 0.926,-0.254C0.93,-0.259 0.935,-0.263 0.938,-0.268C0.937,-0.269 0.935,-0.27 0.935,-0.271C0.935,-0.272 0.936,-0.273 0.938,-0.273L0.942,-0.283C0.937,-0.295 0.934,-0.306 0.914,-0.286ZM0.275,-0.704C0.274,-0.709 0.273,-0.712 0.273,-0.716C0.273,-0.731 0.257,-0.766 0.266,-0.781C0.269,-0.786 0.264,-0.787 0.265,-0.791C0.267,-0.804 0.262,-0.809 0.268,-0.821C0.269,-0.824 0.268,-0.83 0.268,-0.834C0.266,-0.86 0.271,-0.884 0.267,-0.888C0.266,-0.889 0.266,-0.893 0.266,-0.902L0.265,-0.905C0.258,-0.909 0.257,-0.916 0.26,-0.923C0.269,-0.952 0.269,-0.959 0.288,-0.978C0.3,-0.992 0.329,-1.008 0.333,-1.021C0.346,-1.026 0.363,-1.036 0.394,-1.021C0.396,-1.02 0.397,-1.018 0.399,-1.016C0.415,-0.983 0.412,-0.996 0.416,-0.944C0.426,-0.888 0.316,-0.745 0.275,-0.704ZM0.612,-0.823L0.606,-0.818C0.6,-0.818 0.607,-0.827 0.612,-0.823L0.612,-0.826L0.622,-0.835C0.621,-0.827 0.617,-0.825 0.612,-0.823ZM0.579,-0.82L0.579,-0.822L0.581,-0.823L0.582,-0.822L0.579,-0.82ZM0.567,-0.806C0.569,-0.813 0.57,-0.814 0.577,-0.815C0.576,-0.809 0.572,-0.808 0.567,-0.806ZM0.591,-0.805C0.591,-0.803 0.589,-0.801 0.587,-0.801C0.584,-0.79 0.579,-0.801 0.587,-0.801C0.588,-0.805 0.588,-0.805 0.591,-0.805L0.593,-0.807C0.593,-0.807 0.594,-0.807 0.594,-0.806L0.591,-0.805ZM0.546,-0.802L0.547,-0.801L0.545,-0.799L0.544,-0.801L0.546,-0.802ZM0.547,-0.793L0.553,-0.795L0.554,-0.795C0.555,-0.796 0.557,-0.797 0.558,-0.794C0.559,-0.793 0.557,-0.792 0.554,-0.791C0.553,-0.784 0.549,-0.778 0.544,-0.774C0.541,-0.771 0.54,-0.768 0.542,-0.765C0.542,-0.764 0.541,-0.764 0.54,-0.763L0.535,-0.769C0.55,-0.788 0.547,-0.783 0.547,-0.793ZM0.551,-0.79L0.554,-0.791L0.553,-0.795L0.552,-0.794L0.551,-0.79ZM0.567,-0.774L0.566,-0.774C0.561,-0.768 0.555,-0.763 0.551,-0.757C0.546,-0.756 0.546,-0.751 0.544,-0.748C0.542,-0.746 0.54,-0.749 0.538,-0.749L0.545,-0.755C0.546,-0.757 0.549,-0.757 0.551,-0.757C0.549,-0.763 0.55,-0.768 0.556,-0.772C0.569,-0.781 0.56,-0.782 0.575,-0.787L0.567,-0.774ZM0.528,-0.779L0.529,-0.78L0.53,-0.779L0.528,-0.779ZM0.526,-0.751L0.522,-0.76C0.525,-0.761 0.527,-0.759 0.53,-0.758L0.526,-0.751ZM0.535,-0.744C0.535,-0.746 0.539,-0.746 0.539,-0.748L0.539,-0.744C0.538,-0.742 0.536,-0.742 0.535,-0.744ZM0.516,-0.742L0.515,-0.744L0.518,-0.745C0.519,-0.745 0.519,-0.745 0.52,-0.744L0.516,-0.742ZM0.506,-0.722L0.505,-0.72C0.502,-0.725 0.503,-0.725 0.508,-0.737C0.514,-0.734 0.512,-0.733 0.506,-0.722ZM0.495,-0.715L0.498,-0.714L0.495,-0.71L0.494,-0.71L0.495,-0.715ZM0.51,-0.698L0.509,-0.7L0.511,-0.703L0.512,-0.702L0.51,-0.698ZM0.5,-0.667C0.497,-0.673 0.498,-0.671 0.493,-0.676L0.499,-0.679L0.504,-0.673L0.5,-0.667ZM0.45,-0.662L0.452,-0.66L0.45,-0.657L0.448,-0.659C0.448,-0.66 0.449,-0.661 0.45,-0.662ZM0.482,-0.644C0.481,-0.644 0.481,-0.645 0.481,-0.646C0.483,-0.647 0.483,-0.647 0.485,-0.647L0.489,-0.644C0.486,-0.642 0.484,-0.644 0.482,-0.644ZM0.453,-0.642L0.454,-0.641L0.453,-0.64C0.453,-0.64 0.452,-0.641 0.453,-0.642ZM0.46,-0.636L0.461,-0.638L0.463,-0.636L0.461,-0.635L0.46,-0.636ZM0.478,-0.635C0.475,-0.635 0.476,-0.636 0.476,-0.638C0.482,-0.638 0.477,-0.634 0.478,-0.635ZM0.448,-0.637L0.448,-0.633C0.445,-0.634 0.446,-0.635 0.448,-0.637ZM0.455,-0.622C0.454,-0.624 0.451,-0.626 0.456,-0.626L0.455,-0.622ZM0.434,-0.622C0.436,-0.619 0.434,-0.618 0.432,-0.617C0.432,-0.619 0.433,-0.62 0.434,-0.622ZM0.451,-0.612C0.45,-0.614 0.45,-0.617 0.453,-0.618C0.455,-0.618 0.455,-0.616 0.451,-0.612ZM0.464,-0.606L0.462,-0.609L0.464,-0.61L0.465,-0.607L0.464,-0.606ZM0.443,-0.606C0.446,-0.602 0.446,-0.602 0.443,-0.598C0.441,-0.601 0.441,-0.601 0.443,-0.606ZM0.459,-0.595C0.459,-0.595 0.459,-0.596 0.46,-0.597L0.461,-0.595L0.459,-0.595ZM0.417,-0.586L0.416,-0.588L0.418,-0.588L0.419,-0.587L0.417,-0.586ZM0.451,-0.576C0.45,-0.574 0.451,-0.572 0.447,-0.571C0.445,-0.574 0.447,-0.577 0.447,-0.58C0.45,-0.582 0.453,-0.583 0.455,-0.582L0.451,-0.576ZM0.243,-0.578C0.245,-0.575 0.245,-0.575 0.245,-0.572C0.242,-0.573 0.242,-0.576 0.243,-0.578ZM0.457,-0.56L0.456,-0.56L0.457,-0.561L0.458,-0.561L0.457,-0.56ZM0.446,-0.557L0.446,-0.554L0.445,-0.557C0.449,-0.559 0.449,-0.559 0.451,-0.556L0.446,-0.557ZM0.432,-0.547L0.437,-0.547L0.435,-0.552C0.435,-0.553 0.436,-0.553 0.436,-0.554C0.439,-0.552 0.439,-0.555 0.437,-0.547L0.433,-0.543C0.432,-0.545 0.43,-0.543 0.432,-0.547ZM0.416,-0.541L0.417,-0.542L0.418,-0.541L0.416,-0.539L0.416,-0.541ZM0.406,-0.529C0.407,-0.531 0.409,-0.532 0.411,-0.53C0.411,-0.527 0.406,-0.524 0.406,-0.529ZM0.435,-0.501L0.434,-0.501C0.438,-0.52 0.44,-0.521 0.435,-0.525L0.437,-0.528C0.445,-0.522 0.442,-0.519 0.435,-0.501ZM0.41,-0.502C0.407,-0.5 0.404,-0.497 0.4,-0.5L0.401,-0.494C0.398,-0.497 0.399,-0.498 0.4,-0.5C0.399,-0.499 0.398,-0.498 0.397,-0.498C0.396,-0.498 0.394,-0.5 0.394,-0.5C0.394,-0.502 0.396,-0.504 0.395,-0.505C0.394,-0.507 0.393,-0.508 0.394,-0.511L0.39,-0.509C0.386,-0.513 0.387,-0.505 0.383,-0.505C0.385,-0.513 0.388,-0.523 0.392,-0.527C0.394,-0.525 0.391,-0.523 0.391,-0.521L0.393,-0.521L0.395,-0.523C0.398,-0.528 0.404,-0.522 0.399,-0.519C0.397,-0.517 0.4,-0.512 0.393,-0.514L0.392,-0.514C0.391,-0.513 0.393,-0.512 0.394,-0.511C0.395,-0.508 0.398,-0.507 0.401,-0.509L0.407,-0.514L0.406,-0.506C0.411,-0.506 0.41,-0.501 0.41,-0.502ZM0.415,-0.496L0.414,-0.497L0.416,-0.497L0.417,-0.496L0.415,-0.496ZM0.379,-0.495L0.38,-0.496L0.381,-0.493L0.379,-0.492L0.379,-0.495ZM0.425,-0.483L0.427,-0.492C0.428,-0.493 0.429,-0.493 0.431,-0.493C0.43,-0.489 0.429,-0.486 0.425,-0.483ZM0.388,-0.478C0.389,-0.48 0.391,-0.48 0.393,-0.481L0.395,-0.489C0.401,-0.486 0.394,-0.482 0.393,-0.481C0.398,-0.474 0.388,-0.468 0.388,-0.478ZM0.367,-0.456C0.364,-0.456 0.367,-0.458 0.37,-0.473C0.371,-0.478 0.373,-0.483 0.375,-0.487L0.377,-0.488C0.38,-0.487 0.38,-0.487 0.378,-0.478L0.377,-0.478L0.367,-0.456ZM0.384,-0.48C0.383,-0.477 0.381,-0.478 0.379,-0.478L0.384,-0.48ZM0.387,-0.443C0.381,-0.441 0.385,-0.432 0.378,-0.427C0.38,-0.433 0.379,-0.44 0.381,-0.446C0.382,-0.453 0.386,-0.46 0.388,-0.467C0.388,-0.467 0.389,-0.468 0.39,-0.468C0.392,-0.462 0.387,-0.458 0.387,-0.452C0.392,-0.448 0.392,-0.445 0.387,-0.443ZM0.376,-0.466L0.377,-0.463L0.378,-0.462L0.377,-0.46L0.377,-0.463C0.375,-0.464 0.376,-0.465 0.376,-0.466ZM0.354,-0.463L0.355,-0.457C0.355,-0.462 0.356,-0.462 0.354,-0.463ZM0.418,-0.459L0.418,-0.462L0.419,-0.461C0.419,-0.46 0.419,-0.459 0.418,-0.459ZM0.402,-0.452L0.396,-0.457C0.397,-0.46 0.4,-0.46 0.402,-0.459C0.403,-0.458 0.403,-0.457 0.402,-0.452ZM0.375,-0.449L0.376,-0.449C0.376,-0.448 0.377,-0.447 0.377,-0.446L0.375,-0.449ZM0.373,-0.429L0.369,-0.434L0.372,-0.437C0.374,-0.441 0.381,-0.437 0.373,-0.429ZM0.362,-0.437L0.361,-0.438L0.363,-0.438L0.362,-0.437ZM0.406,-0.413L0.404,-0.413L0.403,-0.414L0.407,-0.419C0.407,-0.417 0.408,-0.418 0.406,-0.413ZM0.398,-0.391C0.398,-0.392 0.398,-0.395 0.399,-0.396C0.399,-0.394 0.399,-0.392 0.398,-0.391ZM0.394,-0.379C0.393,-0.384 0.395,-0.386 0.398,-0.389C0.396,-0.382 0.394,-0.378 0.394,-0.379ZM0.268,-0.357L0.27,-0.359L0.273,-0.358C0.272,-0.357 0.272,-0.356 0.271,-0.356C0.27,-0.356 0.269,-0.357 0.268,-0.357ZM0.377,-0.334C0.378,-0.336 0.378,-0.337 0.379,-0.342C0.38,-0.338 0.38,-0.338 0.377,-0.334ZM0.276,-0.336C0.277,-0.335 0.277,-0.334 0.275,-0.334C0.274,-0.334 0.274,-0.335 0.273,-0.336L0.276,-0.336ZM0.376,-0.325C0.377,-0.331 0.377,-0.333 0.377,-0.334C0.378,-0.332 0.379,-0.33 0.376,-0.325ZM0.277,-0.292L0.276,-0.291C0.275,-0.291 0.275,-0.292 0.276,-0.293L0.277,-0.292ZM0.279,-0.218C0.277,-0.221 0.276,-0.221 0.276,-0.222C0.279,-0.233 0.279,-0.233 0.278,-0.234C0.273,-0.239 0.276,-0.246 0.272,-0.252L0.274,-0.26C0.271,-0.264 0.272,-0.267 0.274,-0.274L0.277,-0.274C0.277,-0.271 0.282,-0.25 0.28,-0.244C0.282,-0.24 0.279,-0.217 0.279,-0.218ZM0.938,-0.269C0.941,-0.27 0.939,-0.271 0.938,-0.273L0.938,-0.269ZM0.366,-0.164L0.367,-0.166L0.368,-0.165C0.367,-0.164 0.367,-0.164 0.366,-0.164Z" style="fill-rule:nonzero;"/>
            </g>
            <g transform="matrix(24,0,0,24,189.444,37.5187)">
                <path d="M0.24,-0.281C0.205,-0.24 0.139,-0.217 0.138,-0.216C0.126,-0.236 0.126,-0.312 0.069,-0.326C0.061,-0.328 0.053,-0.327 0.045,-0.328C0.035,-0.329 0.028,-0.326 0.022,-0.318C0.005,-0.297 -0.021,-0.271 -0.033,-0.226C-0.068,-0.092 -0.039,-0.079 -0.039,-0.078L-0.032,-0.058L-0.038,-0.063C-0.027,-0.026 -0.014,0.018 0.05,0.025C0.124,0.034 0.13,-0.023 0.138,-0.037C0.157,-0.068 0.143,-0.169 0.143,-0.17C0.166,-0.183 0.179,-0.187 0.194,-0.202C0.206,-0.213 0.214,-0.206 0.217,-0.216C0.218,-0.217 0.218,-0.217 0.219,-0.217C0.227,-0.218 0.226,-0.226 0.254,-0.246C0.268,-0.256 0.257,-0.282 0.24,-0.281ZM0.045,-0.214C0.05,-0.231 0.052,-0.25 0.072,-0.264C0.081,-0.251 0.093,-0.203 0.093,-0.202C0.094,-0.181 0.042,-0.203 0.045,-0.214ZM0.164,-0.199L0.163,-0.2C0.163,-0.202 0.165,-0.202 0.167,-0.202L0.168,-0.199L0.164,-0.199ZM0.144,-0.185C0.153,-0.195 0.154,-0.201 0.162,-0.2C0.162,-0.196 0.164,-0.194 0.144,-0.185ZM0.103,-0.035C0.09,-0.018 0.059,-0.018 0.051,-0.056C0.047,-0.073 0.044,-0.069 0.041,-0.08C0.04,-0.084 0.023,-0.155 0.041,-0.154C0.091,-0.148 0.059,-0.144 0.105,-0.156C0.113,-0.151 0.124,-0.065 0.103,-0.035Z" style="fill-rule:nonzero;"/>
            </g>
            <g transform="matrix(24,0,0,24,195.252,37.5187)">
                <path d="M0.653,-0.283C0.652,-0.288 0.639,-0.291 0.636,-0.292C0.609,-0.299 0.485,-0.196 0.413,-0.088C0.4,-0.069 0.379,-0.034 0.379,-0.034C0.378,-0.054 0.413,-0.19 0.412,-0.202C0.411,-0.223 0.419,-0.222 0.422,-0.233C0.438,-0.301 0.475,-0.416 0.398,-0.422C0.366,-0.425 0.353,-0.424 0.343,-0.415C0.335,-0.409 0.334,-0.416 0.324,-0.407C0.272,-0.36 0.245,-0.304 0.213,-0.242C0.212,-0.241 0.212,-0.239 0.209,-0.239C0.203,-0.273 0.211,-0.273 0.198,-0.282C0.198,-0.29 0.189,-0.324 0.186,-0.333C0.182,-0.345 0.171,-0.342 0.165,-0.342C0.147,-0.344 0.135,-0.332 0.122,-0.325C0.114,-0.315 0.092,-0.292 0.068,-0.248C0.067,-0.247 0.067,-0.245 0.064,-0.246L0.061,-0.31C0.061,-0.319 0.075,-0.34 0.031,-0.35C0.004,-0.355 -0.005,-0.353 -0.007,-0.341C-0.016,-0.26 -0.009,-0.122 -0.003,-0.088C0.004,-0.048 0.067,-0.018 0.07,-0.117C0.071,-0.146 0.078,-0.147 0.071,-0.156L0.071,-0.158L0.075,-0.158C0.09,-0.177 0.12,-0.285 0.148,-0.306L0.149,-0.302C0.15,-0.301 0.169,-0.182 0.161,-0.127C0.154,-0.084 0.204,-0.055 0.211,-0.109C0.234,-0.127 0.223,-0.143 0.226,-0.147C0.229,-0.151 0.238,-0.177 0.237,-0.182C0.236,-0.183 0.237,-0.184 0.238,-0.184C0.243,-0.19 0.239,-0.201 0.246,-0.204L0.259,-0.239C0.262,-0.242 0.265,-0.246 0.265,-0.251C0.265,-0.252 0.265,-0.253 0.266,-0.253C0.272,-0.255 0.277,-0.281 0.289,-0.29C0.292,-0.293 0.293,-0.297 0.296,-0.3C0.298,-0.304 0.303,-0.305 0.304,-0.31C0.304,-0.314 0.308,-0.316 0.309,-0.319C0.311,-0.324 0.314,-0.323 0.321,-0.33L0.32,-0.336C0.325,-0.339 0.331,-0.341 0.331,-0.348C0.336,-0.352 0.339,-0.357 0.345,-0.358L0.357,-0.351C0.361,-0.335 0.36,-0.275 0.339,-0.205C0.328,-0.169 0.328,-0.14 0.317,-0.083C0.31,0.006 0.311,-0.024 0.303,0.008C0.3,0.018 0.292,0.086 0.325,0.098C0.348,0.107 0.349,0.11 0.36,0.106C0.367,0.103 0.398,0.069 0.411,0.02C0.422,-0.019 0.429,0.001 0.434,-0.02C0.434,-0.02 0.48,-0.097 0.485,-0.103C0.51,-0.137 0.505,-0.128 0.523,-0.148C0.545,-0.172 0.546,-0.182 0.56,-0.193C0.563,-0.195 0.565,-0.197 0.567,-0.199C0.588,-0.223 0.601,-0.221 0.612,-0.236C0.628,-0.257 0.645,-0.252 0.649,-0.262C0.652,-0.271 0.656,-0.269 0.653,-0.283ZM0.326,-0.397L0.327,-0.4L0.328,-0.399L0.326,-0.397ZM0.316,-0.375C0.297,-0.359 0.299,-0.366 0.313,-0.383C0.315,-0.38 0.319,-0.379 0.316,-0.375ZM0.351,-0.37L0.35,-0.371L0.351,-0.372L0.352,-0.371L0.351,-0.37ZM0.287,-0.344C0.287,-0.341 0.289,-0.337 0.285,-0.336L0.284,-0.338L0.287,-0.344ZM0.3,-0.336C0.302,-0.338 0.301,-0.338 0.305,-0.337C0.305,-0.335 0.303,-0.334 0.3,-0.336ZM0.284,-0.301L0.283,-0.299C0.283,-0.299 0.282,-0.299 0.282,-0.3L0.284,-0.301C0.286,-0.302 0.288,-0.304 0.288,-0.301L0.284,-0.301ZM0.609,-0.277L0.61,-0.28L0.611,-0.28L0.609,-0.277ZM0.626,-0.275C0.633,-0.278 0.631,-0.278 0.634,-0.276C0.631,-0.273 0.633,-0.274 0.626,-0.275ZM0.233,-0.198C0.233,-0.199 0.233,-0.201 0.236,-0.201C0.236,-0.199 0.232,-0.189 0.233,-0.198ZM0.073,-0.166C0.069,-0.166 0.072,-0.172 0.076,-0.172L0.073,-0.166ZM0.214,-0.154L0.212,-0.156L0.213,-0.157L0.215,-0.157L0.214,-0.154ZM0.471,-0.103C0.483,-0.124 0.484,-0.126 0.493,-0.132L0.471,-0.103ZM0.374,0.062C0.38,0.029 0.398,0.009 0.411,-0.012C0.414,-0.017 0.421,-0.034 0.421,-0.034C0.437,-0.053 0.463,-0.093 0.463,-0.092C0.463,-0.093 0.464,-0.093 0.464,-0.093C0.452,-0.073 0.383,0.046 0.374,0.062Z" style="fill-rule:nonzero;"/>
            </g>
            <g transform="matrix(24,0,0,24,210.228,37.5187)">
                <path d="M0.351,-0.556C0.331,-0.513 0.361,-0.366 0.165,-0.155C0.157,-0.146 0.148,-0.138 0.137,-0.132C0.135,-0.128 0.131,-0.131 0.129,-0.13C0.129,-0.129 0.128,-0.128 0.128,-0.126C0.12,-0.13 0.124,-0.125 0.114,-0.142L0.117,-0.148C0.115,-0.152 0.113,-0.156 0.108,-0.157C0.107,-0.158 0.105,-0.158 0.105,-0.159C0.105,-0.17 0.094,-0.18 0.083,-0.19C0.084,-0.192 0.084,-0.195 0.085,-0.198C0.087,-0.197 0.09,-0.197 0.091,-0.196C0.093,-0.184 0.096,-0.19 0.098,-0.186C0.098,-0.182 0.098,-0.182 0.102,-0.183L0.102,-0.19C0.1,-0.191 0.098,-0.193 0.096,-0.195C0.097,-0.196 0.098,-0.197 0.099,-0.198L0.109,-0.189C0.105,-0.186 0.107,-0.183 0.11,-0.18C0.111,-0.182 0.113,-0.184 0.114,-0.185C0.122,-0.183 0.125,-0.174 0.132,-0.17C0.134,-0.176 0.112,-0.196 0.108,-0.2C0.095,-0.209 0.084,-0.239 0.076,-0.235C0.061,-0.256 0.076,-0.236 0.054,-0.279C0.048,-0.293 0.022,-0.302 0.037,-0.367C0.059,-0.363 0.062,-0.325 0.099,-0.309C0.104,-0.312 0.102,-0.311 0.109,-0.314C0.109,-0.323 0.109,-0.323 0.113,-0.331C0.078,-0.398 0.044,-0.419 -0.021,-0.373C-0.02,-0.37 -0.018,-0.369 -0.018,-0.367C-0.018,-0.346 -0.029,-0.336 -0.025,-0.352C-0.024,-0.354 -0.025,-0.356 -0.027,-0.357C-0.031,-0.353 -0.03,-0.317 -0.029,-0.311C-0.026,-0.311 -0.024,-0.312 -0.022,-0.312C-0.013,-0.309 -0.02,-0.316 -0.014,-0.318C-0.014,-0.313 -0.007,-0.294 -0.013,-0.288C-0.016,-0.29 -0.018,-0.292 -0.02,-0.294L-0.018,-0.296C-0.02,-0.297 -0.021,-0.298 -0.023,-0.298C-0.024,-0.299 -0.025,-0.302 -0.027,-0.301C-0.029,-0.296 -0.026,-0.267 -0.021,-0.261C-0.018,-0.263 -0.014,-0.264 -0.011,-0.266C-0.007,-0.259 -0.007,-0.259 -0.01,-0.254L-0.014,-0.255C-0.018,-0.245 -0.008,-0.225 -0.004,-0.223L0.001,-0.226C-0.002,-0.232 -0.005,-0.238 -0.006,-0.245C-0.002,-0.247 0.006,-0.244 0.003,-0.231C0.009,-0.228 0.016,-0.231 0.012,-0.22C0.017,-0.209 0.08,-0.121 0.092,-0.118C0.089,-0.111 0.094,-0.107 0.088,-0.107C0.085,-0.112 0.048,-0.163 0.039,-0.17C0.039,-0.163 0.079,-0.107 0.085,-0.103C0.084,-0.101 0.084,-0.099 0.083,-0.096C0.079,-0.094 -0.021,-0.035 -0.021,-0.027C-0.134,0.113 -0.033,0.164 0.001,0.158C0.035,0.152 0.056,0.171 0.096,0.121C0.141,0.065 0.119,0.116 0.154,0.046C0.204,-0.053 0.161,-0.107 0.165,-0.122C0.267,-0.213 0.308,-0.274 0.347,-0.358C0.382,-0.387 0.407,-0.581 0.351,-0.556ZM0.029,-0.385C0.031,-0.386 0.03,-0.386 0.032,-0.385C0.03,-0.384 0.031,-0.384 0.029,-0.385ZM-0.011,-0.365C-0.012,-0.366 -0.013,-0.366 -0.013,-0.366C-0.01,-0.37 -0.011,-0.369 -0.009,-0.367C-0.01,-0.367 -0.01,-0.366 -0.011,-0.365ZM-0.025,-0.364L-0.024,-0.363L-0.025,-0.364ZM0.004,-0.347C0.005,-0.349 0.004,-0.349 0.006,-0.348C0.005,-0.346 0.005,-0.347 0.004,-0.347ZM-0.026,-0.315C-0.026,-0.32 -0.026,-0.325 -0.027,-0.33C-0.029,-0.333 -0.027,-0.336 -0.025,-0.338C-0.023,-0.334 -0.023,-0.334 -0.027,-0.33C-0.026,-0.329 -0.023,-0.329 -0.023,-0.328C-0.024,-0.314 -0.024,-0.316 -0.026,-0.315ZM-0.011,-0.268C-0.013,-0.268 -0.015,-0.269 -0.017,-0.269C-0.013,-0.274 -0.014,-0.272 -0.013,-0.276C-0.011,-0.275 -0.01,-0.275 -0.007,-0.274C-0.009,-0.272 -0.01,-0.27 -0.011,-0.268ZM0.289,-0.269C0.289,-0.271 0.289,-0.273 0.292,-0.274C0.293,-0.271 0.291,-0.27 0.289,-0.269ZM-0.02,-0.257C-0.019,-0.256 -0.019,-0.256 -0.018,-0.257L-0.02,-0.257ZM0.017,-0.248L0.016,-0.248C0.016,-0.249 0.016,-0.248 0.017,-0.249L0.017,-0.248ZM0.024,-0.231C0.024,-0.232 0.023,-0.234 0.023,-0.235L0.025,-0.235C0.025,-0.234 0.025,-0.233 0.026,-0.232C0.025,-0.232 0.025,-0.232 0.024,-0.231ZM0.027,-0.224C0.029,-0.224 0.029,-0.224 0.031,-0.223C0.029,-0.222 0.03,-0.221 0.027,-0.224ZM0.027,-0.211C0.027,-0.213 0.026,-0.213 0.028,-0.214C0.029,-0.213 0.029,-0.213 0.029,-0.212C0.029,-0.212 0.028,-0.212 0.027,-0.211ZM0.046,-0.191C0.043,-0.192 0.04,-0.194 0.036,-0.196C0.038,-0.204 0.038,-0.201 0.037,-0.209C0.049,-0.197 0.05,-0.198 0.046,-0.191ZM0.07,-0.191C0.066,-0.192 0.063,-0.193 0.062,-0.199C0.067,-0.198 0.067,-0.193 0.07,-0.191L0.075,-0.186C0.07,-0.186 0.07,-0.186 0.07,-0.191ZM0.06,-0.183C0.059,-0.182 0.058,-0.181 0.056,-0.18C0.052,-0.181 0.054,-0.186 0.05,-0.187C0.056,-0.189 0.055,-0.182 0.06,-0.183C0.064,-0.179 0.067,-0.175 0.068,-0.17C0.063,-0.167 0.056,-0.17 0.06,-0.183ZM0.027,-0.184C0.024,-0.18 0.029,-0.178 0.038,-0.172C0.036,-0.177 0.031,-0.179 0.027,-0.184ZM0.117,-0.172C0.117,-0.176 0.114,-0.175 0.112,-0.176C0.111,-0.177 0.11,-0.179 0.11,-0.18C0.105,-0.174 0.11,-0.17 0.117,-0.172ZM0.081,-0.175C0.084,-0.175 0.083,-0.176 0.087,-0.171C0.081,-0.173 0.082,-0.172 0.081,-0.175ZM0.038,-0.172L0.039,-0.17L0.039,-0.171L0.038,-0.172ZM0.12,-0.165C0.124,-0.163 0.125,-0.167 0.118,-0.167C0.119,-0.166 0.12,-0.166 0.12,-0.165ZM0.132,-0.164C0.131,-0.166 0.131,-0.165 0.13,-0.166C0.13,-0.164 0.13,-0.164 0.132,-0.164ZM0.075,-0.156C0.079,-0.157 0.079,-0.157 0.079,-0.151C0.076,-0.152 0.075,-0.153 0.075,-0.156ZM0.109,-0.154C0.107,-0.154 0.107,-0.153 0.108,-0.156C0.11,-0.155 0.109,-0.155 0.109,-0.154ZM0.079,-0.136L0.078,-0.136L0.079,-0.137L0.079,-0.136ZM0.099,-0.132C0.102,-0.129 0.106,-0.128 0.106,-0.122C0.099,-0.125 0.099,-0.125 0.099,-0.132ZM0.095,-0.113L0.095,-0.114C0.095,-0.113 0.096,-0.113 0.095,-0.113ZM0.146,-0.093C0.145,-0.09 0.145,-0.086 0.145,-0.082C0.129,-0.094 0.145,-0.105 0.149,-0.108L0.154,-0.091C0.151,-0.092 0.148,-0.093 0.146,-0.093ZM-0.023,0.095C-0.021,0.035 0.042,-0.025 0.092,-0.057C0.104,0.088 -0.025,0.145 -0.023,0.095Z" style="fill-rule:nonzero;"/>
            </g>
        </g>
    </g>
</svg>
